<svg width="97" height="52" viewBox="0 0 97 52" fill="none" xmlns="http://www.w3.org/2000/svg">
	<path d="M66.0999 27.8H63.2" stroke="#5CAF62" stroke-width="1.5" stroke-miterlimit="10" stroke-linecap="round" />
	<path d="M80.8999 27.8H77.9999" stroke="#5CAF62" stroke-width="1.5" stroke-miterlimit="10" stroke-linecap="round" />
	<path d="M33.7999 27.8V50.3H95.3999V27.8H92.7999" stroke="#5CAF62" stroke-width="1.5" stroke-miterlimit="10" stroke-linecap="round" stroke-linejoin="round" />
	<path d="M80.8999 27.8V24H92.7999V27.8" stroke="#5CAF62" stroke-width="1.5" stroke-miterlimit="10" stroke-linejoin="round" />
	<path d="M66.1 27.8V24H78V27.8" stroke="#5CAF62" stroke-width="1.5" stroke-miterlimit="10" stroke-linejoin="round" />
	<path d="M19.1 5.39999H16" stroke="#5CAF62" stroke-width="1.5" stroke-miterlimit="10" stroke-linecap="round" />
	<path d="M33.9 5.39999H31" stroke="#5CAF62" stroke-width="1.5" stroke-miterlimit="10" stroke-linecap="round" />
	<path d="M48.7999 5.39999H45.7999" stroke="#5CAF62" stroke-width="1.5" stroke-miterlimit="10" stroke-linecap="round" />
	<path d="M63.2 27.8V5.39999H60.6" stroke="#5CAF62" stroke-width="1.5" stroke-miterlimit="10" stroke-linecap="round" stroke-linejoin="round" />
	<path d="M4.19998 5.39999H1.59998V27.8H33.8" stroke="#5CAF62" stroke-width="1.5" stroke-miterlimit="10" stroke-linecap="round" stroke-linejoin="round" />
	<path d="M48.7999 5.4V1.5H60.5999V5.4" stroke="#5CAF62" stroke-width="1.5" stroke-miterlimit="10" stroke-linejoin="round" />
	<path d="M33.9 5.4V1.5H45.8V5.4" stroke="#5CAF62" stroke-width="1.5" stroke-miterlimit="10" stroke-linejoin="round" />
	<path d="M19.1 5.4V1.5H31V5.4" stroke="#5CAF62" stroke-width="1.5" stroke-miterlimit="10" stroke-linejoin="round" />
	<path d="M4.19995 5.4V1.5H16V5.4" stroke="#5CAF62" stroke-width="1.5" stroke-miterlimit="10" stroke-linejoin="round" />
	<path d="M14.7 24H12.8V9.8H14.7V24Z" fill="#43BF4C" />
	<path d="M20.0001 18.4V24H18.1001V9.8H23.3001C24.9001 9.8 26.1001 10.2 27.0001 11C27.9001 11.8 28.3001 12.8 28.3001 14.2C28.3001 15.6 27.9001 16.6 27.0001 17.4C26.1001 18.2 24.9001 18.5 23.3001 18.5H20.0001V18.4ZM20.0001 16.9H23.4001C24.4001 16.9 25.2001 16.7 25.7001 16.2C26.2001 15.7 26.5001 15 26.5001 14.2C26.5001 13.4 26.2001 12.7 25.7001 12.2C25.2001 11.7 24.4001 11.4 23.5001 11.4H20.0001V16.9Z" fill="#43BF4C" />
	<path d="M40.5 11.3H36V24H34.1V11.3H29.5V9.8H40.5V11.3Z" fill="#43BF4C" />
	<path d="M47.5 21.5L51.6 9.8H53.7L48.3 24H46.6L41.4 9.8H43.4L47.5 21.5Z" fill="#43BF4C" />
	<path d="M49.5 40.4V46H47.6V31.8H52.8C54.4 31.8 55.6 32.2 56.5 33C57.4 33.8 57.8 34.8 57.8 36.2C57.8 37.6 57.4 38.6 56.5 39.4C55.6 40.2 54.4 40.5 52.8 40.5H49.5V40.4ZM49.5 38.9H52.9C53.9 38.9 54.7 38.7 55.2 38.2C55.7 37.7 56 37 56 36.2C56 35.4 55.7 34.7 55.2 34.2C54.7 33.7 53.9 33.4 53 33.4H49.5V38.9V38.9Z" fill="#43BF4C" />
	<path d="M62.1999 44.5H68.8999V46H60.2999V31.8H62.1999V44.5Z" fill="#43BF4C" />
	<path d="M80.9 41.5C80.7 43 80.2 44.2 79.2 45C78.2 45.8 77 46.2 75.5 46.2C73.8 46.2 72.5 45.6 71.5 44.4C70.5 43.2 70 41.6 70 39.6V38.2C70 36.9 70.2 35.7 70.7 34.7C71.2 33.7 71.8 32.9 72.7 32.4C73.6 31.9 74.6 31.6 75.7 31.6C77.2 31.6 78.4 32 79.3 32.9C80.2 33.8 80.7 34.9 80.9 36.4H79C78.8 35.3 78.5 34.4 77.9 33.9C77.4 33.4 76.6 33.1 75.6 33.1C74.4 33.1 73.5 33.5 72.8 34.4C72.1 35.3 71.8 36.5 71.8 38.2V39.6C71.8 41.1 72.1 42.4 72.8 43.3C73.5 44.2 74.3 44.7 75.5 44.7C76.5 44.7 77.3 44.5 77.9 44C78.5 43.5 78.8 42.7 79 41.5H80.9Z" fill="#43BF4C" />
</svg>