<svg width="224" height="245" viewBox="0 0 224 245" fill="none" xmlns="http://www.w3.org/2000/svg">
<path d="M3 165.739V78.6363C3 73.9297 3.97388 69.274 5.86038 64.962C8.54937 58.8157 13.1349 53.6914 18.9459 50.3389L98.2167 4.60577C100.04 3.55379 102.108 3 104.213 3H111H118.817C120.903 3 122.953 3.54374 124.765 4.5776L203.981 49.7826C210.438 53.4676 215.333 59.378 217.75 66.4091C218.909 69.781 219.518 73.3176 219.553 76.883L220.425 166.359C220.474 171.373 219.263 176.318 216.904 180.743C214.026 186.138 209.686 190.613 204.38 193.652L127.809 237.526C122.692 240.458 116.897 242 111 242C105.76 242 100.615 240.611 96.087 237.974L19.1762 193.18C14.464 190.435 10.4963 186.577 7.62047 181.944C4.60033 177.078 3 171.465 3 165.739Z" stroke="#020317" stroke-width="6"/>
<g filter="url(#filter0_d_32_133)">
<path d="M89 162.5C97.9927 164.564 102.874 164.874 111.5 165H112.5C121.126 164.874 126.007 164.564 135 162.5C136.426 145.862 163.615 126.963 168.437 92.9138C168.944 89.3355 168.837 85.677 168.074 82.1445C162.165 54.7919 139.763 38 112.5 38H111.5C84.2371 38 61.8351 54.7919 55.9257 82.1445C55.1625 85.677 55.0558 89.3355 55.5626 92.9138C60.3852 126.963 87.5739 145.862 89 162.5Z" stroke="black" stroke-width="5"/>
<path d="M112 77.5C118.324 69.2298 123.323 68.0596 135.01 68.0023C135.558 67.9997 136.006 68.44 136.013 68.9872L136.129 78.0456M112 77.5V117M112 77.5C105.676 69.2298 100.677 68.0596 88.9897 68.0023C88.4424 67.9997 87.9944 68.44 87.9873 68.9872L87.8712 78.0456M112 117C118.5 110 125 107 136.5 107L136.129 78.0456M112 117V127M112 117C105.5 110 99 107 87.5 107L87.8712 78.0456M136.129 78.0456H143.5C144.052 78.0456 144.5 78.4933 144.5 79.0456V117C144.5 117.552 144.058 118 143.505 118H125.5C120 118 112 127 112 127M112 165V127M112 127C112 127 104 118 98.5 118H80.4946C79.9423 118 79.5 117.552 79.5 117V79.0456C79.5 78.4933 79.9477 78.0456 80.5 78.0456H87.8712" stroke="black" stroke-width="3"/>
<path d="M112 165L111.881 167.497L111.969 167.501L112.058 167.499L112 165ZM134 163L135.153 160.782L134.402 160.391L133.568 160.538L134 163ZM134 181.5L132.269 179.697L130.36 181.529L132.297 183.33L134 181.5ZM111.474 185.5C112.855 185.514 113.986 184.406 114 183.026C114.014 181.645 112.906 180.514 111.526 180.5L111.474 185.5ZM88.0001 163L88.2577 160.513L86.8198 160.364L85.9734 161.536L88.0001 163ZM112.058 167.499C121.958 167.271 126.84 166.795 134.432 165.462L133.568 160.538C126.264 161.82 121.636 162.278 111.942 162.501L112.058 167.499ZM132.847 165.218C134.538 166.098 136.368 167.825 136.877 170.026C137.339 172.025 136.89 175.261 132.269 179.697L135.731 183.303C141.111 178.139 142.744 173.208 141.748 168.899C140.799 164.792 137.629 162.069 135.153 160.782L132.847 165.218ZM132.297 183.33C133.813 184.741 134.54 186.122 134.706 187.254C134.859 188.289 134.59 189.387 133.505 190.523C132.356 191.726 130.249 192.991 126.754 193.948C123.283 194.899 118.601 195.5 112.5 195.5V200.5C118.899 200.5 124.051 199.872 128.074 198.771C132.074 197.675 135.124 196.066 137.12 193.977C139.18 191.821 140.048 189.211 139.653 186.527C139.273 183.941 137.77 181.593 135.703 179.67L132.297 183.33ZM112.5 195.5C106.232 195.5 101.472 195.019 97.9833 194.203C94.4492 193.377 92.4853 192.268 91.5022 191.23C90.6519 190.333 90.401 189.361 90.6839 188.074C91.0008 186.633 92.0122 184.796 93.8865 182.64L90.1135 179.36C87.9878 181.804 86.3743 184.392 85.8005 187.001C85.1928 189.764 85.7856 192.467 87.8728 194.67C89.8272 196.732 92.8946 198.148 96.8449 199.072C100.841 200.006 106.018 200.5 112.5 200.5V195.5ZM91.575 183.464C100.157 184.944 104.203 185.426 111.474 185.5L111.526 180.5C104.609 180.429 100.845 179.989 92.425 178.536L91.575 183.464ZM93.6773 179.146C92.1112 177.729 90.1034 175.343 89.0758 172.628C88.0874 170.016 88.0282 167.231 90.0268 164.464L85.9734 161.536C82.772 165.969 82.9627 170.601 84.3994 174.397C85.7967 178.09 88.3889 181.104 90.3227 182.854L93.6773 179.146ZM87.7425 165.487C94.8908 166.227 101.298 166.993 111.881 167.497L112.119 162.503C101.702 162.007 95.4427 161.258 88.2577 160.513L87.7425 165.487Z" fill="black"/>
<path d="M97 197.5H128V201.5C128 205.366 124.866 208.5 121 208.5H104C100.134 208.5 97 205.366 97 201.5V197.5Z" fill="black"/>
</g>
<defs>
<filter id="filter0_d_32_133" x="50.7516" y="33.5" width="126.497" height="181" filterUnits="userSpaceOnUse" color-interpolation-filters="sRGB">
<feFlood flood-opacity="0" result="BackgroundImageFix"/>
<feColorMatrix in="SourceAlpha" type="matrix" values="0 0 0 0 0 0 0 0 0 0 0 0 0 0 0 0 0 0 127 0" result="hardAlpha"/>
<feOffset dx="2" dy="2"/>
<feGaussianBlur stdDeviation="2"/>
<feComposite in2="hardAlpha" operator="out"/>
<feColorMatrix type="matrix" values="0 0 0 0 0 0 0 0 0 0 0 0 0 0 0 0 0 0 0.25 0"/>
<feBlend mode="normal" in2="BackgroundImageFix" result="effect1_dropShadow_32_133"/>
<feBlend mode="normal" in="SourceGraphic" in2="effect1_dropShadow_32_133" result="shape"/>
</filter>
</defs>
</svg>
