<svg width="224" height="246" viewBox="0 0 224 246" fill="none" xmlns="http://www.w3.org/2000/svg">
<path d="M3 166.239V79.1363C3 74.4297 3.97388 69.774 5.86038 65.462C8.54937 59.3157 13.1349 54.1914 18.9459 50.8389L98.2167 5.10577C100.04 4.05379 102.108 3.5 104.213 3.5H111H118.817C120.903 3.5 122.953 4.04374 124.765 5.0776L203.981 50.2826C210.438 53.9676 215.333 59.878 217.75 66.9091C218.909 70.281 219.518 73.8176 219.553 77.383L220.425 166.859C220.474 171.873 219.263 176.818 216.904 181.243C214.026 186.638 209.686 191.113 204.38 194.152L127.809 238.026C122.692 240.958 116.897 242.5 111 242.5C105.76 242.5 100.615 241.111 96.087 238.474L19.1762 193.68C14.464 190.935 10.4963 187.077 7.62047 182.444C4.60033 177.578 3 171.965 3 166.239Z" fill="#F7C212" stroke="#020317" stroke-width="6"/>
<g filter="url(#filter0_d_32_132)">
<path d="M89 163C97.9927 165.064 102.874 165.374 111.5 165.5H112.5C121.126 165.374 126.007 165.064 135 163C136.426 146.362 163.615 127.463 168.437 93.4138C168.944 89.8355 168.837 86.177 168.074 82.6445C162.165 55.2919 139.763 38.5 112.5 38.5H111.5C84.2371 38.5 61.8351 55.2919 55.9257 82.6445C55.1625 86.177 55.0558 89.8355 55.5626 93.4138C60.3852 127.463 87.5739 146.362 89 163Z" fill="white" stroke="black" stroke-width="5"/>
<path d="M112 78C118.324 69.7298 123.323 68.5596 135.01 68.5023C135.558 68.4997 136.006 68.94 136.013 69.4872L136.129 78.5456H143.5C144.052 78.5456 144.5 78.9933 144.5 79.5456V117.5C144.5 118.052 144.058 118.5 143.505 118.5H125.5C120 118.5 112 127.5 112 127.5V117.5V78Z" fill="#F5C11B"/>
<path d="M112 78C105.676 69.7298 100.677 68.5596 88.9897 68.5023C88.4424 68.4997 87.9944 68.94 87.9873 69.4872L87.8712 78.5456H80.5C79.9477 78.5456 79.5 78.9933 79.5 79.5456V117.5C79.5 118.052 79.9423 118.5 80.4946 118.5H98.5C104 118.5 112 127.5 112 127.5V117.5V78Z" fill="#F5C11B"/>
<path d="M112 78C118.324 69.7298 123.323 68.5596 135.01 68.5023C135.558 68.4997 136.006 68.94 136.013 69.4872L136.129 78.5456M112 78V117.5M112 78C105.676 69.7298 100.677 68.5596 88.9897 68.5023C88.4424 68.4997 87.9944 68.94 87.9873 69.4872L87.8712 78.5456M112 117.5C118.5 110.5 125 107.5 136.5 107.5L136.129 78.5456M112 117.5V127.5M112 117.5C105.5 110.5 99 107.5 87.5 107.5L87.8712 78.5456M136.129 78.5456H143.5C144.052 78.5456 144.5 78.9933 144.5 79.5456V117.5C144.5 118.052 144.058 118.5 143.505 118.5H125.5C120 118.5 112 127.5 112 127.5M112 165.5V127.5M112 127.5C112 127.5 104 118.5 98.5 118.5H80.4946C79.9423 118.5 79.5 118.052 79.5 117.5V79.5456C79.5 78.9933 79.9477 78.5456 80.5 78.5456H87.8712" stroke="black" stroke-width="3"/>
<path d="M134 163.5C126.552 164.807 121.797 165.275 112 165.5C101.5 165 95.1667 164.242 88.0001 163.5C82.8001 170.7 88.5 178.333 92 181.5C84 190.7 87 198.5 112.5 198.5C137.5 198.5 141.167 188.667 134 182C144 172.4 138.167 165.667 134 163.5Z" fill="#B0B0B2"/>
<path d="M112 165.5L111.881 167.997L111.969 168.001L112.058 167.999L112 165.5ZM134 163.5L135.153 161.282L134.402 160.891L133.568 161.038L134 163.5ZM134 182L132.269 180.197L130.36 182.029L132.297 183.83L134 182ZM111.474 186C112.855 186.014 113.986 184.906 114 183.526C114.014 182.145 112.906 181.014 111.526 181L111.474 186ZM88.0001 163.5L88.2577 161.013L86.8198 160.864L85.9734 162.036L88.0001 163.5ZM112.058 167.999C121.958 167.771 126.84 167.295 134.432 165.962L133.568 161.038C126.264 162.32 121.636 162.778 111.942 163.001L112.058 167.999ZM132.847 165.718C134.538 166.598 136.368 168.325 136.877 170.526C137.339 172.525 136.89 175.761 132.269 180.197L135.731 183.803C141.111 178.639 142.744 173.708 141.748 169.399C140.799 165.292 137.629 162.569 135.153 161.282L132.847 165.718ZM132.297 183.83C133.813 185.241 134.54 186.622 134.706 187.754C134.859 188.789 134.59 189.887 133.505 191.023C132.356 192.226 130.249 193.491 126.754 194.448C123.283 195.399 118.601 196 112.5 196V201C118.899 201 124.051 200.372 128.074 199.271C132.074 198.175 135.124 196.566 137.12 194.477C139.18 192.321 140.048 189.711 139.653 187.027C139.273 184.441 137.77 182.093 135.703 180.17L132.297 183.83ZM112.5 196C106.232 196 101.472 195.519 97.9833 194.703C94.4492 193.877 92.4853 192.768 91.5022 191.73C90.6519 190.833 90.401 189.861 90.6839 188.574C91.0008 187.133 92.0122 185.296 93.8865 183.14L90.1135 179.86C87.9878 182.304 86.3743 184.892 85.8005 187.501C85.1928 190.264 85.7856 192.967 87.8728 195.17C89.8272 197.232 92.8946 198.648 96.8449 199.572C100.841 200.506 106.018 201 112.5 201V196ZM91.575 183.964C100.157 185.444 104.203 185.926 111.474 186L111.526 181C104.609 180.929 100.845 180.489 92.425 179.036L91.575 183.964ZM93.6773 179.646C92.1112 178.229 90.1034 175.843 89.0758 173.128C88.0874 170.516 88.0282 167.731 90.0268 164.964L85.9734 162.036C82.772 166.469 82.9627 171.101 84.3994 174.897C85.7967 178.59 88.3889 181.604 90.3227 183.354L93.6773 179.646ZM87.7425 165.987C94.8908 166.727 101.298 167.493 111.881 167.997L112.119 163.003C101.702 162.507 95.4427 161.758 88.2577 161.013L87.7425 165.987Z" fill="black"/>
<path d="M97 198H128V202C128 205.866 124.866 209 121 209H104C100.134 209 97 205.866 97 202V198Z" fill="black"/>
</g>
<defs>
<filter id="filter0_d_32_132" x="50.7516" y="34" width="126.497" height="181" filterUnits="userSpaceOnUse" color-interpolation-filters="sRGB">
<feFlood flood-opacity="0" result="BackgroundImageFix"/>
<feColorMatrix in="SourceAlpha" type="matrix" values="0 0 0 0 0 0 0 0 0 0 0 0 0 0 0 0 0 0 127 0" result="hardAlpha"/>
<feOffset dx="2" dy="2"/>
<feGaussianBlur stdDeviation="2"/>
<feComposite in2="hardAlpha" operator="out"/>
<feColorMatrix type="matrix" values="0 0 0 0 0 0 0 0 0 0 0 0 0 0 0 0 0 0 0.25 0"/>
<feBlend mode="normal" in2="BackgroundImageFix" result="effect1_dropShadow_32_132"/>
<feBlend mode="normal" in="SourceGraphic" in2="effect1_dropShadow_32_132" result="shape"/>
</filter>
</defs>
</svg>
