<svg width="361" height="263" viewBox="0 0 361 263" fill="none" xmlns="http://www.w3.org/2000/svg">
	<path fill-rule="evenodd" clip-rule="evenodd" d="M79.5925 31.68C84.5277 34.1591 86.4954 40.161 84.2521 45.2077C72.2367 72.2387 66.0055 101.525 66.0055 131.18C66.0055 160.835 72.2367 190.121 84.2521 217.152C86.4954 222.199 84.5277 228.201 79.5925 230.68V230.68C74.6573 233.159 68.6258 231.176 66.3619 226.139C52.9589 196.314 46.0055 163.953 46.0055 131.18C46.0055 98.4069 52.9589 66.0456 66.3619 36.2212C68.6258 31.1837 74.6573 29.2009 79.5925 31.68V31.68Z" fill="#3FA9F5" />
	<path fill-rule="evenodd" clip-rule="evenodd" d="M43.5925 5C48.4017 7.71532 50.0783 13.8107 47.5506 18.7212C10.8165 90.086 10.8165 172.094 47.5506 243.459C50.0783 248.369 48.4018 254.465 43.5925 257.18V257.18C38.7833 259.895 32.6645 258.203 30.1232 253.3C-10.0411 175.804 -10.0411 86.3764 30.1232 8.88045C32.6645 3.97703 38.7832 2.28468 43.5925 5V5Z" fill="#3FA9F5" />
	<path fill-rule="evenodd" clip-rule="evenodd" d="M281.003 32C285.937 29.5201 291.969 31.502 294.234 36.5392C307.642 66.3629 314.598 98.7254 314.598 131.5C314.598 164.275 307.642 196.637 294.234 226.461C291.969 231.498 285.937 233.48 281.002 231V231C276.068 228.52 274.101 222.518 276.345 217.472C288.364 190.442 294.598 161.156 294.598 131.5C294.598 101.844 288.364 72.5581 276.345 45.5285C274.101 40.4821 276.068 34.4799 281.003 32V32Z" fill="#3FA9F5" />
	<path fill-rule="evenodd" clip-rule="evenodd" d="M317.003 5C321.812 2.28468 327.931 3.97703 330.472 8.88045C370.636 86.3764 370.636 175.804 330.472 253.3C327.931 258.203 321.812 259.895 317.002 257.18V257.18C312.193 254.465 310.517 248.369 313.044 243.459C349.779 172.094 349.779 90.086 313.044 18.7212C310.517 13.8107 312.193 7.71532 317.003 5V5Z" fill="#3FA9F5" />
	<path fill-rule="evenodd" clip-rule="evenodd" d="M179.956 25.6805C196.524 25.5831 210.035 38.9354 210.132 55.5036L210.582 132.034C210.679 148.602 197.327 162.112 180.759 162.209C164.191 162.307 150.68 148.955 150.583 132.386L150.133 55.8564C150.036 39.2881 163.388 25.7779 179.956 25.6805Z" fill="#3FA9F5" />
	<path fill-rule="evenodd" clip-rule="evenodd" d="M124.592 113.17C130.115 113.17 134.592 117.647 134.592 123.17V132.17C134.592 144.237 139.386 155.81 147.919 164.343C156.452 172.876 168.025 177.67 180.092 177.67C192.16 177.67 203.733 172.876 212.266 164.343C220.799 155.81 225.592 144.237 225.592 132.17V123.17C225.592 117.647 230.07 113.17 235.592 113.17V113.17C241.115 113.17 245.592 117.647 245.592 123.17V132.17C245.592 149.542 238.692 166.202 226.408 178.485C214.124 190.769 197.464 197.67 180.092 197.67C162.721 197.67 146.061 190.769 133.777 178.485C121.493 166.202 114.592 149.542 114.592 132.17V123.17C114.592 117.647 119.07 113.17 124.592 113.17V113.17Z" fill="#3FA9F5" />
	<path fill-rule="evenodd" clip-rule="evenodd" d="M180.592 177.68C186.115 177.68 190.592 182.157 190.592 187.68V235.68C190.592 241.203 186.115 245.68 180.592 245.68C175.07 245.68 170.592 241.203 170.592 235.68V187.68C170.592 182.157 175.07 177.68 180.592 177.68Z" fill="#3FA9F5" />
</svg>
