<svg width="1024" height="1024" viewBox="0 0 1024 1024" fill="none" xmlns="http://www.w3.org/2000/svg">
<g clip-path="url(#clip0_612_136)">
<path d="M441 328L577.807 490.101C577.875 490.182 577.95 490.258 578.03 490.327L688 585" stroke="white" stroke-width="50" stroke-linecap="round"/>
<path d="M482 687L538.051 800.642C538.271 801.089 538.317 801.601 538.179 802.08L501.764 928.446C501.396 929.725 502.356 931 503.686 931H555" stroke="white" stroke-width="50" stroke-linecap="round"/>
<rect x="129.577" y="176" width="501.006" height="500.116" rx="38" transform="rotate(13.7154 129.577 176)" fill="url(#paint0_linear_612_136)"/>
<path d="M918.113 96.6978L991.656 44.3696C993.067 43.3659 995 44.507 994.803 46.2271L984.425 136.717C984.395 136.966 984.317 137.198 984.194 137.406L764.388 507.704C763.751 508.777 764.397 510.337 765.831 511.188L833.268 551.218C836.11 552.905 835.151 556.291 832.043 555.546L749.533 535.769C748.551 535.534 747.625 535.741 747.086 536.318L654.726 659.782C647.684 669.195 634.677 671.783 624.569 665.782L621.15 663.753C610.778 657.596 606.924 644.473 612.32 633.686L680.915 496.55C680.958 496.464 680.997 496.375 681.02 496.282C681.194 495.56 680.925 494.714 680.289 494.01L623.414 431.049C621.271 428.677 623.784 426.213 626.626 427.9L694.063 467.93C695.497 468.782 697.176 468.602 697.813 467.529L917.619 97.2304C917.742 97.0229 917.909 96.843 918.113 96.6978Z" fill="url(#paint1_linear_612_136)"/>
<path d="M626.626 427.9L694.063 467.93C694.738 468.331 695.468 468.503 696.117 468.461C697.225 468.39 698.587 467.996 699.538 468.57L762.688 506.678C763.629 507.246 763.916 508.611 764.369 509.613C764.64 510.213 765.146 510.781 765.831 511.188L833.268 551.218C836.11 552.905 835.151 556.291 832.043 555.546L749.533 535.769C748.551 535.534 747.625 535.741 747.086 536.318L654.726 659.782C647.684 669.195 634.677 671.783 624.569 665.782L621.15 663.753C610.778 657.596 606.924 644.473 612.32 633.686L680.915 496.55C680.958 496.464 680.997 496.375 681.02 496.282C681.194 495.56 680.925 494.714 680.289 494.01L623.414 431.049C621.271 428.677 623.784 426.213 626.626 427.9Z" fill="url(#paint2_linear_612_136)"/>
<path d="M461 451.5L546.768 566.65C547.03 567.002 547.4 567.258 547.822 567.379L676 604" stroke="white" stroke-width="50" stroke-linecap="round"/>
<path d="M339.5 662L420.53 799.204C420.828 799.709 420.89 800.319 420.699 800.874L367.915 953.848C367.467 955.146 368.432 956.5 369.806 956.5H445" stroke="white" stroke-width="50" stroke-linecap="round"/>
</g>
<defs>
<linearGradient id="paint0_linear_612_136" x1="704.792" y1="544.816" x2="41.9367" y2="286.515" gradientUnits="userSpaceOnUse">
<stop offset="0.138542" stop-color="#23A3FF"/>
<stop offset="1" stop-color="#9747FF"/>
</linearGradient>
<linearGradient id="paint1_linear_612_136" x1="889.573" y1="-21" x2="1193.02" y2="334.085" gradientUnits="userSpaceOnUse">
<stop offset="0.308339" stop-color="#EBEBEB"/>
<stop offset="0.687415" stop-color="#A9B5C0"/>
</linearGradient>
<linearGradient id="paint2_linear_612_136" x1="731.245" y1="487.374" x2="625.141" y2="666.122" gradientUnits="userSpaceOnUse">
<stop stop-color="#AB7434"/>
<stop offset="1" stop-color="#C69E61"/>
</linearGradient>
<clipPath id="clip0_612_136">
<rect width="1024" height="1024" fill="white"/>
</clipPath>
</defs>
</svg>
