<svg width="429" height="388" viewBox="0 0 429 388" fill="none" xmlns="http://www.w3.org/2000/svg">
    <g id="unity">
        <path id="Vector"
            d="M139.592 368.184C169.19 368.184 193.184 344.19 193.184 314.592C193.184 284.994 169.19 261 139.592 261C109.994 261 86 284.994 86 314.592C86 344.19 109.994 368.184 139.592 368.184Z"
            fill="#4C566A" />
        <g id="Clip path group">
            <mask id="mask0_0_1" style="mask-type:luminance" maskUnits="userSpaceOnUse" x="105"
                y="285" width="60" height="60">
                <g id="clip0_19_3">
                    <path id="Vector_2" d="M164.531 344.837H105.102V285.408H164.531V344.837Z"
                        fill="white" />
                </g>
            </mask>
            <g mask="url(#mask0_0_1)">
                <g id="Group">
                    <path id="Vector_3"
                        d="M143.841 315.182L154.498 333.095L159.647 315.182L154.498 297.273L143.841 315.182ZM138.646 312.273L149.305 294.362L130.741 298.991L117.33 312.273H138.646ZM149.302 336.006L138.646 318.093H117.33L130.741 331.375L149.302 336.006ZM164.517 321.278L158.015 344.823L133.747 338.513L130.154 332.365L122.865 332.416L105.102 315.18L122.865 297.949H122.865L130.152 298.001L133.749 291.853L158.015 285.544L164.517 309.085L160.824 315.182L164.517 321.278Z"
                        fill="#D8DEE9" />
                </g>
            </g>
        </g>
    </g>
    <g id="mongodb">
        <path id="Vector_4"
            d="M323.5 164C339.24 164 352 151.24 352 135.5C352 119.76 339.24 107 323.5 107C307.76 107 295 119.76 295 135.5C295 151.24 307.76 164 323.5 164Z"
            fill="#4C566A" />
        <g id="Clip path group_2">
            <path id="Vector_5"
                d="M323.268 114.236L324.409 116.378C324.665 116.774 324.943 117.124 325.27 117.449C326.229 118.397 327.123 119.408 327.946 120.476C329.879 123.013 331.182 125.831 332.113 128.878C332.671 130.74 332.974 132.65 332.997 134.581C333.09 140.354 331.111 145.311 327.121 149.431C326.472 150.084 325.771 150.684 325.024 151.223C324.629 151.223 324.442 150.92 324.279 150.641C323.982 150.123 323.785 149.555 323.697 148.965C323.556 148.266 323.464 147.568 323.51 146.847V146.521C323.478 146.452 323.129 114.401 323.268 114.236Z"
                fill="#599636" />
            <path id="Vector_6"
                d="M323.268 114.166C323.221 114.072 323.175 114.143 323.128 114.188C323.151 114.656 322.988 115.072 322.733 115.47C322.452 115.866 322.081 116.169 321.708 116.495C319.638 118.287 318.009 120.452 316.704 122.873C314.968 126.131 314.073 129.623 313.82 133.3C313.704 134.626 314.239 139.306 314.657 140.656C315.798 144.24 317.846 147.243 320.5 149.85C321.151 150.478 321.848 151.06 322.57 151.62C322.779 151.62 322.802 151.433 322.85 151.294C322.942 150.997 323.012 150.693 323.06 150.386L323.527 146.895L323.268 114.166Z"
                fill="#6CAC48" />
            <path id="Vector_7"
                d="M324.409 152.641C324.455 152.107 324.712 151.664 324.991 151.222C324.71 151.106 324.502 150.875 324.339 150.617C324.199 150.373 324.082 150.116 323.992 149.849C323.666 148.871 323.597 147.846 323.503 146.847V146.242C323.387 146.335 323.363 147.126 323.363 147.243C323.295 148.299 323.155 149.349 322.944 150.386C322.874 150.805 322.827 151.223 322.57 151.596C322.57 151.642 322.57 151.689 322.592 151.759C323.012 152.993 323.126 154.249 323.197 155.53V155.997C323.197 156.556 323.175 156.438 323.638 156.625C323.825 156.694 324.033 156.718 324.22 156.857C324.36 156.857 324.383 156.741 324.383 156.648L324.314 155.88V153.738C324.291 153.364 324.36 152.993 324.407 152.643L324.409 152.641Z"
                fill="#C2BFBF" />
        </g>
    </g>
    <g id="mysql">
        <path id="Vector_8"
            d="M264.5 131C286.315 131 304 113.315 304 91.5C304 69.6848 286.315 52 264.5 52C242.685 52 225 69.6848 225 91.5C225 113.315 242.685 131 264.5 131Z"
            fill="#4C566A" />
        <g id="Vector_9">
            <path
                d="M285.877 104.595C283.145 104.522 281.059 104.774 279.275 105.523C278.768 105.736 277.959 105.741 277.877 106.373C278.155 106.664 278.199 107.098 278.42 107.455C278.846 108.141 279.565 109.06 280.207 109.542C280.908 110.069 281.63 110.632 282.382 111.089C283.719 111.9 285.211 112.363 286.499 113.175C287.257 113.654 288.011 114.258 288.751 114.798C289.117 115.066 289.363 115.481 289.839 115.649V115.571C289.589 115.255 289.524 114.82 289.295 114.489L288.285 113.484C287.298 112.18 286.044 111.035 284.712 110.083C283.65 109.325 281.272 108.3 280.828 107.069L280.75 106.992C281.504 106.907 282.386 106.636 283.081 106.451C284.249 106.139 285.292 106.22 286.499 105.91C287.042 105.755 287.586 105.6 288.13 105.446V105.137C287.52 104.514 287.086 103.69 286.421 103.127C284.682 101.653 282.783 100.181 280.828 98.9531C279.744 98.272 278.404 97.8295 277.255 97.2524C276.869 97.0585 276.189 96.9576 275.934 96.6339C275.331 95.8684 275.002 94.8977 274.536 94.0059C273.561 92.1378 272.604 90.0972 271.74 88.1313C271.151 86.7911 270.766 85.4695 270.031 84.2667C266.504 78.4964 262.707 75.014 256.826 71.5905C255.575 70.8626 254.068 70.5747 252.476 70.1994L249.913 70.0444C249.391 69.8275 248.848 69.1928 248.359 68.885C246.41 67.6605 241.413 64.9963 239.97 68.4986C239.059 70.7093 241.332 72.8667 242.145 73.9868C242.715 74.7726 243.446 75.6535 243.854 76.5374C244.122 77.1183 244.168 77.7006 244.398 78.3153C244.962 79.8294 245.453 81.4764 246.184 82.8755C246.553 83.5835 246.96 84.3293 247.427 84.9622C247.713 85.351 248.204 85.5222 248.281 86.122C247.802 86.79 247.774 87.8265 247.505 88.6726C246.291 92.4818 246.748 97.2159 248.514 100.035C249.056 100.9 250.333 102.756 252.088 102.045C253.623 101.422 253.28 99.4944 253.719 97.7937C253.818 97.408 253.757 97.1243 253.952 96.866V96.9435L255.35 99.7258C256.385 101.384 258.221 103.117 259.778 104.286C260.585 104.893 261.22 105.941 262.263 106.296V106.219H262.186C261.983 105.905 261.667 105.775 261.409 105.523C260.801 104.93 260.125 104.193 259.622 103.513C258.207 101.601 256.956 99.5085 255.816 97.3298C255.272 96.2899 254.799 95.1419 254.34 94.0833C254.163 93.6753 254.165 93.0582 253.797 92.8464C253.294 93.6223 252.554 94.2497 252.165 95.1656C251.544 96.6298 251.464 98.4152 251.233 100.267C251.097 100.315 251.157 100.282 251.078 100.344C249.996 100.084 249.616 98.9762 249.214 98.0254C248.196 95.6212 248.008 91.7497 248.902 88.9822C249.134 88.2659 250.181 86.0104 249.757 85.3493C249.555 84.6892 248.888 84.3073 248.514 83.8032C248.052 83.1796 247.591 82.3586 247.271 81.6386C246.439 79.764 246.05 77.6597 245.174 75.7647C244.756 74.8587 244.047 73.9421 243.465 73.1366C242.821 72.2448 242.1 71.5871 241.601 70.5082C241.424 70.125 241.182 69.5113 241.445 69.1171C241.53 68.8512 241.648 68.74 241.912 68.6532C242.363 68.3078 243.617 68.7682 244.087 68.9625C245.332 69.4773 246.372 69.9676 247.427 70.6628C247.934 70.9972 248.446 71.6435 249.058 71.8226H249.757C250.851 72.0726 252.076 71.9001 253.097 72.209C254.903 72.7551 256.521 73.6043 257.991 74.5278C262.468 77.3408 266.129 81.3452 268.633 86.122C269.036 86.8909 269.21 87.6251 269.565 88.4408C270.281 90.0861 271.183 91.779 271.895 93.3878C272.606 94.9924 273.299 96.6126 274.303 97.9483C274.832 98.6504 276.872 99.0271 277.798 99.4166C278.449 99.69 279.514 99.9748 280.129 100.344C281.305 101.05 282.444 101.89 283.547 102.663C284.099 103.049 285.793 103.897 285.877 104.595Z"
                fill="#D8DEE9" />
            <path fill-rule="evenodd" clip-rule="evenodd"
                d="M251.156 75.1463C250.586 75.1359 250.183 75.2082 249.757 75.3005V75.378H249.835C250.107 75.9334 250.586 76.2909 250.922 76.7692C251.181 77.3104 251.44 77.8514 251.699 78.3924L251.777 78.3153C252.258 77.9778 252.478 77.4382 252.476 76.6149C252.283 76.4131 252.254 76.1597 252.088 75.919C251.865 75.598 251.436 75.4162 251.156 75.1463Z"
                fill="#D8DEE9" />
        </g>
    </g>
    <g id="postgresql">
        <path id="Vector_10"
            d="M340 106C359.33 106 375 90.33 375 71C375 51.67 359.33 36 340 36C320.67 36 305 51.67 305 71C305 90.33 320.67 106 340 106Z"
            fill="#4C566A" />
        <g id="Clip path group_3">
            <g id="Vector_11">
                <path
                    d="M351.608 81.4906C351.916 78.9492 351.824 78.5765 353.736 78.9881L354.221 79.0304C355.691 79.0966 357.613 78.7962 358.743 78.2766C361.174 77.1592 362.616 75.2937 360.219 75.7839C354.75 76.9012 354.374 75.0672 354.374 75.0672C360.149 66.5814 362.563 55.8094 360.479 53.1727C354.795 45.9805 344.957 49.3815 344.792 49.4698L344.74 49.4794C343.659 49.2574 342.45 49.1247 341.092 49.1029C338.617 49.0627 336.739 49.7455 335.314 50.8156C335.314 50.8156 317.763 43.6548 318.58 59.821C318.753 63.26 323.557 85.8434 329.287 79.0222C331.381 76.5279 333.405 74.4189 333.405 74.4189C334.41 75.0801 335.613 75.4173 336.875 75.2962L336.972 75.2138C336.942 75.5235 336.955 75.8264 337.011 76.185C335.536 77.8183 335.969 78.105 333.018 78.7065C330.033 79.3159 331.787 80.4009 332.932 80.6844C334.32 81.0282 337.532 81.5153 339.702 78.5066L339.616 78.8499C340.195 79.3086 340.156 82.1471 340.238 84.1751C340.32 86.2032 340.457 88.0958 340.875 89.2116C341.292 90.3272 341.785 93.2013 345.663 92.3781C348.904 91.6903 351.383 90.7003 351.608 81.4906Z"
                    fill="black" />
                <path
                    d="M350.59 46.5777C354.156 46.6199 358.731 47.6933 362.08 51.9317C363.055 53.1657 363.274 54.942 363.249 56.5437C363.222 58.2627 362.901 60.2864 362.342 62.4301C361.393 66.0683 359.711 70.2354 357.378 74.1279C357.957 74.1116 358.747 74.0286 359.808 73.812L359.881 73.7975C360.247 73.7262 360.633 73.6793 361.013 73.6922C361.372 73.7044 362.001 73.7771 362.572 74.2063C363.286 74.7437 363.539 75.5488 363.47 76.2545C363.415 76.8317 363.16 77.2803 362.986 77.54C362.619 78.0879 362.078 78.5728 361.551 78.9614C360.994 79.3721 360.327 79.7681 359.599 80.103L359.599 80.1029C358.099 80.7927 355.833 81.1185 354.129 81.0417L354.086 81.0398L353.713 81.0073C353.703 81.0907 353.692 81.1784 353.681 81.2719C353.668 81.3859 353.654 81.5073 353.638 81.635C353.517 86.2609 352.839 89.3012 351.43 91.2873C349.9 93.4452 347.774 93.9893 346.089 94.3468C344.878 94.6039 343.769 94.6067 342.773 94.3218C341.757 94.0311 340.992 93.4783 340.434 92.8398C339.455 91.7197 339.047 90.1224 338.968 89.9112C338.671 89.1178 338.512 88.1688 338.41 87.2568C338.305 86.3184 338.248 85.2813 338.206 84.2558C338.18 83.5942 338.167 82.9445 338.146 82.3196C335.822 83.3217 333.476 82.8947 332.438 82.6377C331.996 82.5281 331.508 82.347 331.066 82.1077C330.786 81.9556 330.32 81.6735 329.941 81.2193C329.188 81.8405 328.301 82.2651 327.275 82.3082C325.815 82.3696 324.641 81.6326 323.804 80.8271C322.187 79.2704 320.917 76.5905 319.942 73.9639C318.931 71.2431 318.113 68.2197 317.536 65.6715C316.969 63.1659 316.602 60.9659 316.549 59.9216L316.54 59.7172C316.36 55.4437 317.367 52.3097 319.373 50.21C321.393 48.0953 324.098 47.3763 326.53 47.2455C328.966 47.1144 331.361 47.5556 333.094 48.0002C333.873 48.1998 334.539 48.4057 335.042 48.5743C336.694 47.6041 338.712 47.0505 341.125 47.0898L341.125 47.0899C342.383 47.11 343.542 47.2182 344.612 47.4053C344.641 47.3968 344.67 47.388 344.7 47.3791C345.043 47.2776 345.515 47.1521 346.089 47.0308C347.231 46.7891 348.808 46.5567 350.59 46.5777ZM350.542 50.6044C349.133 50.5877 347.865 50.7726 346.939 50.9687C346.478 51.0662 346.11 51.1648 345.862 51.238C345.763 51.2672 345.685 51.292 345.631 51.31L345.478 51.392L344.717 51.531L344.327 51.4508C343.384 51.2571 342.303 51.136 341.059 51.1161H341.058C339.009 51.0828 337.582 51.6393 336.543 52.4198L335.616 53.1162L334.541 52.6777C334.541 52.6777 334.541 52.6777 334.541 52.6777C334.54 52.6775 334.54 52.6772 334.539 52.6768C334.534 52.675 334.526 52.6716 334.513 52.6667C334.488 52.6569 334.448 52.6411 334.392 52.6202C334.282 52.5785 334.113 52.5166 333.896 52.4418C333.459 52.2918 332.829 52.0919 332.075 51.8984C330.543 51.5055 328.601 51.1669 326.751 51.2664C324.898 51.3661 323.368 51.8881 322.327 52.9775C321.319 54.0318 320.451 55.9542 320.602 59.548L320.61 59.7204L320.614 59.7873C320.663 60.5158 320.96 62.3858 321.504 64.791C322.056 67.2312 322.829 70.0722 323.758 72.5744C324.722 75.1709 325.738 77.0729 326.638 77.9395C326.893 78.1843 327.046 78.2578 327.105 78.2787C327.18 78.2483 327.389 78.1332 327.724 77.7345C328.795 76.4589 329.845 75.2857 330.625 74.4332C331.015 74.0062 331.34 73.6579 331.568 73.4156C331.682 73.2944 331.771 73.1996 331.833 73.1345C331.864 73.102 331.888 73.0769 331.905 73.0596C331.913 73.051 331.919 73.0443 331.924 73.0397C331.926 73.0374 331.928 73.0356 331.929 73.0343C331.929 73.0336 331.93 73.0331 331.93 73.0327C331.93 73.0325 331.931 73.0323 331.931 73.0322C331.931 73.0321 331.931 73.032 331.931 73.032C331.931 73.0319 331.939 73.0391 333.233 74.2575L331.931 73.0319L333.107 71.8059L334.53 72.7418C335.013 73.0593 335.549 73.251 336.109 73.2964L339.486 70.4448L338.996 75.4096C338.985 75.519 338.985 75.6494 339.021 75.8767L339.168 76.8179L338.526 77.5277C338.521 77.5341 338.515 77.5405 338.509 77.5468L340.086 78.2676L340.886 77.2776C341.333 77.6319 341.56 78.0718 341.673 78.3316C341.799 78.6201 341.878 78.9138 341.933 79.1651C342.043 79.6682 342.103 80.242 342.141 80.782C342.217 81.8344 342.233 83.1842 342.269 84.0943L342.285 84.4665C342.324 85.3258 342.374 86.1194 342.451 86.8141C342.543 87.6344 342.661 88.1896 342.781 88.5121C342.851 88.698 342.924 88.9248 342.973 89.0729C343.03 89.2465 343.084 89.4013 343.144 89.5509C343.266 89.8565 343.386 90.0646 343.508 90.204C343.61 90.3206 343.722 90.4017 343.902 90.4532C344.102 90.5105 344.509 90.5639 345.237 90.4094C346.794 90.079 347.527 89.7843 348.103 88.9728C348.79 88.0032 349.465 85.9718 349.576 81.4418L349.578 81.3458L349.59 81.2507C349.66 80.6733 349.722 80.0856 349.796 79.6406C349.863 79.2434 349.991 78.5631 350.406 77.9763C350.963 77.1885 351.775 76.8852 352.511 76.8387C352.726 76.8251 352.946 76.8328 353.161 76.853C353.069 76.7609 352.986 76.6659 352.91 76.5686C352.739 76.3495 352.618 76.135 352.535 75.9436C352.493 75.8484 352.461 75.7597 352.436 75.6798C352.423 75.6398 352.413 75.602 352.404 75.5666C352.399 75.5489 352.395 75.5318 352.391 75.5154C352.389 75.5071 352.388 75.4991 352.386 75.4911C352.385 75.4872 352.384 75.4833 352.383 75.4794C352.383 75.4775 352.383 75.4746 352.382 75.4736C352.382 75.4708 352.381 75.4679 354.374 75.0672L352.381 75.4679L352.212 74.6413L352.688 73.942C355.438 69.9004 357.394 65.2986 358.405 61.423C358.911 59.4834 359.163 57.7892 359.183 56.4817C359.194 55.8286 359.145 55.3182 359.064 54.945C359.024 54.7612 358.98 54.628 358.942 54.5368C358.913 54.4681 358.89 54.4321 358.882 54.4192L358.878 54.4136C356.544 51.4599 353.358 50.6377 350.542 50.6044ZM334.542 52.6782C334.542 52.6782 334.542 52.6781 334.542 52.6781C334.542 52.678 334.541 52.6778 334.541 52.6777C334.542 52.678 334.542 52.6782 334.542 52.6782Z"
                    fill="black" />
                <path
                    d="M360.219 75.7837C354.75 76.901 354.374 75.067 354.374 75.067C360.149 66.5806 362.563 55.8084 360.479 53.172C354.796 45.9803 344.957 49.3815 344.793 49.4698L344.74 49.4792C343.659 49.257 342.45 49.1247 341.091 49.1027C338.616 49.0626 336.739 49.7453 335.314 50.8151C335.314 50.8151 317.763 43.6547 318.579 59.8208C318.753 63.26 323.557 85.8434 329.286 79.0222C331.381 76.5279 333.404 74.4189 333.404 74.4189C334.409 75.0801 335.612 75.4173 336.874 75.2962L336.972 75.2138C336.941 75.5235 336.955 75.8264 337.011 76.185C335.535 77.8183 335.969 78.105 333.018 78.7065C330.032 79.3159 331.786 80.4008 332.931 80.6844C334.32 81.0282 337.532 81.5153 339.702 78.5066L339.615 78.8499C340.194 79.3086 340.6 81.8339 340.532 84.1231C340.464 86.4123 340.418 87.984 340.874 89.2116C341.33 90.4392 341.784 93.2013 345.663 92.3781C348.904 91.6903 350.584 89.9077 350.818 86.9342C350.983 84.8202 351.359 85.1327 351.382 83.2427L351.683 82.348C352.03 79.4824 351.738 78.5579 353.735 78.9879L354.221 79.0301C355.69 79.0964 357.614 78.796 358.743 78.2763C361.174 77.159 362.616 75.2935 360.219 75.7837H360.219Z"
                    fill="#336791" />
                <path
                    d="M339.956 76.7554C340.33 76.7658 340.625 77.0745 340.614 77.4451C340.539 80.0988 340.549 82.758 340.642 84.9108C340.689 85.9879 340.756 86.9308 340.843 87.6793C340.933 88.4505 341.036 88.9493 341.131 89.1833L341.181 89.307C341.44 89.9346 341.8 90.6863 342.448 91.2273C343.099 91.77 344.129 92.1707 345.894 91.7963L346.038 91.7649C347.512 91.4362 348.426 90.9807 349.037 90.352C349.666 89.7042 350.055 88.7891 350.3 87.3796L350.3 87.3794C350.673 85.2379 351.397 79.2537 351.489 78.0446C351.517 77.675 351.842 77.3978 352.215 77.4255C352.589 77.4532 352.868 77.7753 352.84 78.145C352.746 79.397 352.016 85.4242 351.636 87.6077C351.37 89.1374 350.912 90.3576 350.014 91.2825C349.117 92.2061 347.861 92.7516 346.178 93.1088H346.178C344.063 93.5574 342.59 93.1006 341.575 92.2538C340.601 91.4414 340.137 90.3366 339.872 89.6819L339.872 89.6817C339.703 89.2632 339.586 88.6015 339.496 87.8325C339.405 87.0407 339.335 86.0633 339.288 84.9684C339.193 82.7774 339.184 80.0858 339.259 77.4075C339.27 77.037 339.582 76.745 339.956 76.7554Z"
                    fill="white" />
                <path
                    d="M326.569 48.4923C328.81 48.365 331.056 48.7652 332.723 49.1876C333.561 49.3998 334.262 49.6199 334.754 49.7874C335 49.8712 335.195 49.942 335.33 49.9924C335.397 50.0176 335.449 50.0377 335.485 50.0517C335.503 50.0587 335.517 50.0642 335.527 50.0681C335.532 50.0701 335.535 50.0716 335.538 50.0727C335.54 50.0732 335.541 50.0737 335.542 50.074C335.542 50.0742 335.542 50.0744 335.543 50.0745C335.543 50.0747 335.543 50.0747 335.301 50.6608L335.543 50.0747C335.89 50.215 336.056 50.6069 335.914 50.95C335.773 51.293 335.377 51.4574 335.031 51.3173C335.031 51.3173 335.03 51.3171 335.029 51.3168C335.028 51.3162 335.025 51.3152 335.022 51.3138C335.015 51.311 335.003 51.3065 334.988 51.3005C334.958 51.2887 334.911 51.2708 334.85 51.2479C334.728 51.202 334.546 51.1359 334.314 51.0569C333.849 50.8988 333.184 50.6898 332.388 50.4881C330.787 50.0828 328.693 49.7161 326.646 49.8324C324.598 49.9487 322.674 50.5423 321.305 51.9787C319.942 53.4089 319.019 55.7907 319.217 59.7197L319.222 59.7981C319.278 60.6441 319.596 62.6043 320.142 65.017C320.702 67.4933 321.491 70.3952 322.447 72.9704C323.414 75.577 324.515 77.7384 325.654 78.835C326.215 79.3744 326.701 79.5767 327.121 79.5591C327.537 79.5416 328.077 79.3001 328.727 78.5259C329.782 77.269 330.785 76.1486 331.525 75.3426C331.895 74.9394 332.2 74.6144 332.412 74.3899C332.518 74.2777 332.601 74.1905 332.658 74.1311C332.686 74.1015 332.708 74.0789 332.723 74.0635C332.73 74.0558 332.736 74.0499 332.74 74.0459C332.742 74.0439 332.743 74.0424 332.744 74.0413C332.745 74.0408 332.745 74.0403 332.746 74.04C332.746 74.0399 332.746 74.0398 332.746 74.0397L332.746 74.0396C332.746 74.0395 332.747 74.0403 333.235 74.504L332.746 74.0396C333.005 73.772 333.434 73.763 333.704 74.0195C333.966 74.2679 333.983 74.6744 333.748 74.9428L333.725 74.9684C333.725 74.9684 333.724 74.9685 333.724 74.9686C333.724 74.9688 333.724 74.9691 333.724 74.9695C333.723 74.9703 333.721 74.9716 333.72 74.9734C333.716 74.977 333.711 74.9824 333.704 74.9896C333.69 75.0041 333.669 75.0259 333.642 75.0546C333.587 75.1121 333.506 75.1972 333.401 75.3073C333.193 75.5276 332.893 75.8477 332.528 76.2454C331.798 77.0413 330.808 78.1464 329.769 79.3841L329.769 79.3843C328.987 80.3154 328.123 80.8604 327.179 80.9001C326.238 80.9396 325.408 80.47 324.71 79.7976C323.331 78.4708 322.146 76.0502 321.174 73.4335C320.191 70.7855 319.388 67.8228 318.82 65.3104C318.254 62.8123 317.91 60.7081 317.863 59.7868C317.654 55.6327 318.62 52.8408 320.32 51.0572C322.014 49.2799 324.328 48.6195 326.569 48.4923Z"
                    fill="white" />
                <path
                    d="M350.161 47.8526C353.539 47.8215 357.85 48.7364 360.975 52.6911C361.647 53.5418 361.88 54.9124 361.856 56.4551C361.831 58.0369 361.533 59.9507 360.991 62.0265C359.908 66.1792 357.83 71.0647 354.897 75.3751C354.688 75.6825 354.267 75.7637 353.957 75.5566C353.646 75.3494 353.564 74.9324 353.773 74.625C356.615 70.4488 358.632 65.705 359.679 61.6908C360.203 59.6831 360.478 57.879 360.5 56.4343C360.524 54.9505 360.277 53.9858 359.907 53.5183C357.135 50.0099 353.308 49.166 350.174 49.1948C348.608 49.2092 347.234 49.4426 346.29 49.6612C345.819 49.7704 345.458 49.8751 345.237 49.945C345.169 49.9665 345.117 49.9842 345.08 49.9972C345.047 50.0136 345.013 50.0277 344.976 50.039C344.964 50.0427 344.939 50.0505 344.91 50.0573C344.902 50.0592 344.888 50.0624 344.872 50.0654C344.86 50.0674 344.822 50.0742 344.772 50.0759C344.744 50.0763 344.669 50.0718 344.623 50.0648C344.539 50.0435 344.315 49.9209 344.198 49.7977C344.098 49.593 344.097 49.2185 344.155 49.0795C344.196 49.015 344.274 48.9255 344.305 48.8971C344.356 48.8532 344.403 48.8271 344.412 48.8219C344.43 48.8119 344.444 48.8045 344.452 48.8005C344.469 48.7923 344.484 48.786 344.492 48.7826C344.51 48.7751 344.527 48.7682 344.542 48.7625C344.602 48.7398 344.698 48.7065 344.824 48.6668C345.077 48.5862 345.473 48.4718 345.982 48.3542C346.996 48.1193 348.472 47.8681 350.161 47.8526Z"
                    fill="white" />
                <path
                    d="M334.551 50.4619C336.138 49.1529 338.262 48.3187 341.063 48.3642C346.617 48.4543 350.282 51.2824 352.485 54.0708C353.584 55.462 354.326 56.8511 354.769 57.906C354.99 58.432 355.142 58.8867 355.226 59.2268C355.266 59.3918 355.297 59.5559 355.305 59.6983C355.308 59.7629 355.31 59.8709 355.282 59.987C355.266 60.0533 355.163 60.4372 354.733 60.5253L354.488 60.5309C351.706 60.0897 350.431 60.5577 349.877 61.185C349.314 61.8235 349.238 62.9136 349.605 64.3743C349.962 65.7918 350.683 67.337 351.375 68.6519C351.719 69.3054 352.05 69.8916 352.32 70.3705C352.576 70.8269 352.806 71.2337 352.907 71.4772L352.939 71.5531C353.274 72.3307 353.687 72.885 354.059 73.3504C354.243 73.5809 354.448 73.8258 354.605 74.0467C354.757 74.2615 354.913 74.519 354.987 74.8167C354.992 74.8246 355 74.8391 355.015 74.8584C355.059 74.9143 355.179 75.0396 355.466 75.1574C356.061 75.4011 357.363 75.6072 360.044 75.0592L360.106 75.0469C360.41 74.9877 360.687 74.958 360.929 74.9663C361.172 74.9745 361.469 75.0235 361.714 75.208C362.006 75.4285 362.112 75.7546 362.083 76.0596C362.057 76.3218 361.937 76.5537 361.818 76.7311C361.574 77.0953 361.172 77.472 360.703 77.8179C360.224 78.1711 359.638 78.5206 358.99 78.8186L358.99 78.8187C357.878 79.3298 356.158 79.6267 354.722 79.6423C354.002 79.6502 353.293 79.5887 352.736 79.4171C352.243 79.2653 351.533 78.9131 351.488 78.1331C351.437 77.2378 351.567 76.5503 351.856 76.026C352.152 75.4878 352.577 75.1923 352.97 75.0168C353.16 74.9319 353.343 74.8751 353.491 74.8327C353.495 74.8315 353.499 74.8304 353.503 74.8293C353.5 74.8255 353.498 74.8217 353.495 74.8179C353.369 74.6392 353.211 74.4519 352.996 74.1836C352.596 73.6824 352.098 73.0197 351.693 72.0808L351.654 71.9891C351.592 71.8386 351.417 71.5231 351.136 71.0241C350.867 70.5475 350.527 69.9451 350.173 69.2722C349.469 67.9343 348.687 66.2752 348.29 64.6991C347.904 63.1662 347.822 61.4734 348.857 60.3017C349.784 59.2513 351.405 58.8424 353.771 59.0832C353.705 58.8908 353.622 58.6686 353.518 58.4217C353.116 57.4643 352.432 56.1826 351.417 54.8978C349.392 52.334 346.079 49.7881 341.041 49.7063C338.547 49.6658 336.744 50.4005 335.418 51.4935C334.08 52.597 333.186 54.1018 332.594 55.656C332.003 57.2086 331.724 58.7768 331.595 59.9642C331.531 60.5561 331.504 61.0487 331.493 61.3913C331.488 61.5625 331.487 61.696 331.487 61.7853C331.487 61.8299 331.487 61.8635 331.487 61.8852C331.487 61.8961 331.487 61.904 331.488 61.9088C331.488 61.9112 331.488 61.9129 331.488 61.9138V61.9144C331.497 62.2848 331.202 62.5929 330.828 62.6026C330.454 62.6124 330.143 62.3199 330.133 61.9493L330.81 61.9317L330.217 61.947C330.137 61.9489 330.133 61.9489 330.133 61.9487C330.133 61.9485 330.133 61.9481 330.133 61.9477C330.133 61.9469 330.133 61.946 330.133 61.9448C330.133 61.9425 330.132 61.9395 330.132 61.9356C330.132 61.9279 330.132 61.917 330.132 61.9032C330.131 61.8755 330.131 61.8357 330.131 61.7847C330.131 61.6826 330.133 61.5355 330.139 61.3497C330.15 60.9783 330.179 60.4513 330.248 59.8206C330.384 58.5631 330.681 56.875 331.326 55.182C331.971 53.4906 332.976 51.7604 334.551 50.4619ZM354.266 76.0044C354.138 76.0486 353.972 76.092 353.868 76.1219C353.742 76.158 353.631 76.1943 353.527 76.2407C353.331 76.328 353.167 76.4483 353.045 76.6688C352.919 76.8974 352.805 77.2972 352.839 78.0024C352.872 78.0288 352.954 78.0786 353.138 78.1353C353.502 78.2473 354.05 78.3073 354.707 78.3001C356.023 78.2858 357.537 78.0068 358.42 77.6012C358.987 77.3402 359.492 77.0373 359.893 76.7416C360.073 76.609 360.224 76.4829 360.348 76.3679C360.338 76.3699 360.328 76.3717 360.318 76.3738C357.53 76.9438 355.909 76.7917 354.948 76.3977C354.667 76.2825 354.443 76.1468 354.266 76.0044ZM354.997 74.8542L354.997 74.8547C354.997 74.8539 354.996 74.8531 354.996 74.8524C354.995 74.8481 354.994 74.8441 354.993 74.8405C354.993 74.8398 354.993 74.839 354.993 74.8382C354.994 74.8436 354.995 74.8488 354.997 74.8542Z"
                    fill="white" />
                <path
                    d="M337.921 74.8535C338.401 74.812 338.799 74.9809 339.011 75.0678L339.011 75.0679C339.681 75.3429 340.186 75.9715 340.431 76.6263C340.679 77.2877 340.716 78.1337 340.215 78.8289C337.782 82.2016 334.167 81.6249 332.728 81.2683C332.39 81.1845 332.011 81.0436 331.678 80.8631C331.371 80.6968 330.991 80.4379 330.79 80.0692C330.679 79.8645 330.61 79.5994 330.677 79.3077C330.744 79.0229 330.92 78.805 331.117 78.6457C331.488 78.3463 332.075 78.1389 332.842 77.9822H332.843C334.327 77.6795 334.804 77.4797 335.107 77.2407C335.263 77.1173 335.398 76.9638 335.61 76.6992C335.816 76.4412 336.081 76.0973 336.467 75.6703C336.926 75.1622 337.41 74.8977 337.921 74.8535ZM338.412 76.2758C338.237 76.2071 338.137 76.1822 338.039 76.1907C337.959 76.1976 337.773 76.238 337.478 76.5651L337.477 76.5656C337.125 76.9552 336.891 77.2595 336.672 77.5334C336.457 77.8007 336.24 78.0627 335.951 78.2904C335.364 78.7535 334.582 78.9978 333.116 79.2968L333.116 79.2969C332.767 79.3682 332.504 79.4431 332.312 79.5154C332.251 79.5384 332.199 79.5605 332.155 79.5807C332.205 79.6145 332.263 79.6499 332.329 79.6856C332.553 79.8072 332.823 79.9081 333.057 79.9661H333.057C334.395 80.2976 337.203 80.6949 339.112 78.0488L339.126 78.0276C339.273 77.8061 339.302 77.4723 339.16 77.0927C339.011 76.6943 338.73 76.4056 338.492 76.3079L338.412 76.2758Z"
                    fill="white" />
                <path
                    d="M334.264 59.4306C335.257 59.2038 336.377 59.1311 337.355 59.5051C338.386 59.8991 339.155 60.7498 339.458 62.1336C340.168 65.3884 340.09 67.5819 339.709 69.2449C339.52 70.0727 339.259 70.7514 339.003 71.3422C338.735 71.9586 338.512 72.3996 338.33 72.8835C338.074 73.5683 337.846 74.1527 337.695 74.6906C337.544 75.2272 337.493 75.6453 337.546 75.9876C337.602 76.354 337.348 76.6965 336.978 76.7527C336.609 76.8089 336.263 76.5575 336.206 76.1912C336.192 76.1021 336.183 76.0127 336.177 75.9231C332.427 75.8322 329.446 72.2309 330.023 68.1435C330.446 65.1505 330.127 62.6869 330.132 61.9273V61.9272C330.134 61.636 330.304 61.4251 330.366 61.3505C330.457 61.2414 330.57 61.1389 330.684 61.0467C330.917 60.8596 331.228 60.6575 331.584 60.4611C332.298 60.0677 333.258 59.6603 334.264 59.4306ZM336.867 60.7573C336.252 60.5219 335.442 60.5391 334.568 60.7386C333.708 60.9352 332.866 61.2906 332.244 61.6338C331.932 61.8058 331.692 61.9654 331.54 62.0881C331.522 62.102 331.507 62.1148 331.494 62.1264C331.535 62.9531 331.764 65.5036 331.365 68.3294C330.881 71.7575 333.41 74.5728 336.323 74.5818C336.343 74.4978 336.366 74.4141 336.389 74.3309C336.56 73.7234 336.816 73.0681 337.06 72.4163L337.06 72.416C337.255 71.897 337.531 71.3351 337.757 70.8125C337.995 70.2642 338.223 69.6676 338.388 68.9479C338.716 67.5158 338.811 65.5251 338.133 62.4174L338.112 62.3265C337.887 61.4023 337.413 60.966 336.867 60.7573ZM331.412 62.2046C331.398 62.2209 331.402 62.2197 331.413 62.2033C331.413 62.2038 331.412 62.2042 331.412 62.2046Z"
                    fill="white" />
                <path
                    d="M335.223 61.8353C335.192 62.0549 335.629 62.6408 336.199 62.7191C336.768 62.7977 337.255 62.3398 337.286 62.1205C337.317 61.9009 336.88 61.659 336.31 61.5804C335.741 61.5017 335.253 61.6163 335.223 61.8353H335.223Z"
                    fill="white" />
                <path
                    d="M335.512 61.3785C335.743 61.3245 336.036 61.3167 336.341 61.3589L336.341 61.359C336.647 61.4011 336.927 61.4879 337.134 61.6023C337.237 61.6591 337.332 61.7287 337.401 61.8124C337.471 61.8963 337.529 62.0136 337.51 62.1514C337.494 62.2646 337.429 62.3723 337.36 62.4578C337.286 62.5489 337.187 62.6391 337.071 62.7167C336.842 62.8709 336.522 62.9894 336.168 62.9406C335.817 62.8924 335.522 62.692 335.322 62.4844C335.221 62.3794 335.138 62.2662 335.082 62.1579C335.03 62.0593 334.982 61.9296 334.999 61.804L335.027 61.6116H335.084C335.118 61.5698 335.157 61.5354 335.197 61.508C335.287 61.4464 335.398 61.4054 335.512 61.3785ZM336.279 61.802C336.015 61.7655 335.78 61.7756 335.617 61.8139C335.534 61.8332 335.482 61.857 335.454 61.876C335.453 61.8766 335.453 61.8773 335.452 61.8778C335.456 61.8922 335.464 61.9168 335.483 61.9522C335.517 62.018 335.574 62.0972 335.649 62.1759C335.803 62.3358 336.011 62.4674 336.23 62.4975H336.23C336.446 62.5272 336.654 62.4562 336.818 62.3463C336.899 62.2919 336.964 62.2313 337.007 62.1774C337.036 62.1422 337.05 62.1165 337.057 62.1023C337.055 62.1007 337.054 62.0987 337.053 62.0966C337.031 62.0708 336.987 62.0338 336.914 61.9929C336.767 61.9118 336.544 61.8384 336.279 61.802Z"
                    fill="white" />
                <path
                    d="M352.558 61.3877C352.589 61.6072 352.152 62.1932 351.582 62.2714C351.013 62.3501 350.526 61.8922 350.494 61.6728C350.464 61.4533 350.901 61.2114 351.471 61.1328C352.04 61.0542 352.527 61.1686 352.558 61.3878V61.3877Z"
                    fill="white" />
                <path
                    d="M351.455 61.022C351.75 60.9813 352.029 60.9896 352.243 61.0398C352.349 61.0647 352.445 61.1014 352.52 61.1524C352.594 61.2034 352.656 61.276 352.67 61.3723H352.67C352.683 61.4624 352.648 61.566 352.599 61.6588C352.548 61.7565 352.472 61.8613 352.378 61.9597C352.189 62.1553 351.916 62.3385 351.598 62.3821L351.598 62.3822C351.278 62.4263 350.986 62.3197 350.773 62.1765C350.666 62.1047 350.576 62.0219 350.509 61.9401C350.445 61.8611 350.394 61.7724 350.383 61.6885L350.382 61.6879C350.369 61.5917 350.409 61.5049 350.467 61.4357C350.525 61.3665 350.607 61.3052 350.703 61.2523C350.894 61.1463 351.16 61.0627 351.455 61.022ZM352.191 61.2574C352.01 61.2152 351.761 61.2057 351.486 61.2436C351.212 61.2814 350.974 61.3582 350.813 61.4476C350.732 61.4925 350.675 61.5377 350.641 61.578C350.608 61.618 350.604 61.6439 350.606 61.6575C350.61 61.6832 350.632 61.734 350.685 61.7998C350.737 61.8631 350.81 61.931 350.9 61.9912C351.08 62.1122 351.317 62.1952 351.567 62.1607C351.819 62.126 352.049 61.9772 352.214 61.8054C352.296 61.7202 352.359 61.6324 352.399 61.556C352.441 61.4749 352.449 61.4231 352.446 61.4033L352.445 61.3978C352.442 61.3839 352.429 61.3624 352.391 61.3365C352.348 61.3068 352.281 61.2787 352.191 61.2574Z"
                    fill="white" />
                <path
                    d="M354.559 59.198C354.933 59.178 355.252 59.4619 355.272 59.832C355.323 60.7642 355.22 61.5436 355.106 62.2914C354.991 63.0439 354.867 63.7504 354.839 64.6183V64.6188C354.819 65.2303 354.883 65.8767 354.966 66.5838C355.048 67.2766 355.151 68.0348 355.189 68.8027C355.267 70.3626 355.085 72.0501 353.943 73.7397C353.735 74.0477 353.314 74.1301 353.003 73.9239C352.692 73.7177 352.609 73.3009 352.817 72.9929C353.739 71.6284 353.905 70.2637 353.836 68.8687C353.8 68.1592 353.706 67.4642 353.62 66.7402C353.536 66.0304 353.461 65.2962 353.484 64.5752C353.516 63.6099 353.655 62.8133 353.766 62.0905C353.877 61.3627 353.962 60.6943 353.919 59.9043C353.899 59.5342 354.185 59.218 354.559 59.198Z"
                    fill="white" />
            </g>
        </g>
    </g>
    <g id="nodejs">
        <path id="Vector_12"
            d="M103 184C130.062 184 152 162.062 152 135C152 107.938 130.062 86 103 86C75.9381 86 54 107.938 54 135C54 162.062 75.9381 184 103 184Z"
            fill="#4C566A" />
        <g id="Vector_13">
            <path
                d="M103.407 168.187C102.517 168.187 101.633 167.954 100.853 167.505L92.7247 162.695C91.5107 162.017 92.1031 161.777 92.5035 161.638C94.1223 161.072 94.4508 160.944 96.1787 159.963C96.3603 159.859 96.598 159.896 96.7839 160.006L103.029 163.709C103.254 163.831 103.574 163.831 103.783 163.709L128.132 149.662C128.357 149.534 128.504 149.272 128.504 149.004V120.921C128.504 120.641 128.357 120.391 128.127 120.251L103.788 106.216C103.562 106.082 103.264 106.082 103.038 106.216L78.7043 120.251C78.4685 120.385 78.3185 120.647 78.3185 120.915V148.998C78.3185 149.266 78.4648 149.522 78.6964 149.65L85.3641 153.5C88.9844 155.309 91.1968 153.177 91.1968 151.033V123.315C91.1968 122.919 91.5076 122.615 91.9038 122.615H94.9877C95.3717 122.615 95.6886 122.919 95.6886 123.315V151.045C95.6886 155.869 93.0557 158.641 88.4785 158.641C87.0706 158.641 85.9614 158.641 82.8652 157.118L76.4779 153.439C74.8994 152.525 73.9242 150.819 73.9242 148.998V120.915C73.9242 119.088 74.8994 117.382 76.4779 116.48L100.851 102.427C102.393 101.556 104.441 101.556 105.971 102.427L130.313 116.486C131.886 117.394 132.867 119.094 132.867 120.921V149.004C132.867 150.825 131.886 152.525 130.313 153.439L105.971 167.492C105.19 167.943 104.307 168.175 103.405 168.175"
                fill="#D8DEE9" />
            <path
                d="M110.928 148.836C100.274 148.836 98.0406 143.948 98.0406 139.849C98.0406 139.459 98.3551 139.148 98.7458 139.148H101.891C102.238 139.148 102.531 139.401 102.585 139.744C103.061 142.947 104.475 144.563 110.917 144.563C116.049 144.563 118.231 143.404 118.231 140.684C118.231 139.118 117.609 137.955 109.637 137.175C102.969 136.517 98.8494 135.049 98.8494 129.719C98.8494 124.809 102.994 121.885 109.936 121.885C117.731 121.885 121.595 124.59 122.083 130.401C122.101 130.602 122.028 130.797 121.894 130.943C121.76 131.083 121.571 131.169 121.376 131.169H118.212C117.883 131.169 117.597 130.937 117.53 130.62C116.768 127.252 114.927 126.173 109.924 126.173C104.323 126.173 103.67 128.123 103.67 129.585C103.67 131.357 104.438 131.875 111.996 132.874C119.48 133.867 123.033 135.268 123.033 140.526C123.033 145.825 118.609 148.865 110.893 148.865"
                fill="#D8DEE9" />
        </g>
    </g>
    <g id="c++">
        <path id="Vector_14"
            d="M263.763 206.526C282.41 206.526 297.526 191.41 297.526 172.763C297.526 154.116 282.41 139 263.763 139C245.116 139 230 154.116 230 172.763C230 191.41 245.116 206.526 263.763 206.526Z"
            fill="#4C566A" />
        <g id="Clip path group_4">
            <path id="Vector_15"
                d="M285.99 185.488C286.347 184.87 286.568 184.174 286.568 183.55V161.862C286.568 161.237 286.347 160.541 285.99 159.924L263.851 172.706L285.99 185.488Z"
                fill="#00599C" />
            <path id="Vector_16"
                d="M265.819 197.801L284.601 186.957C285.142 186.645 285.634 186.105 285.99 185.488L263.851 172.706L241.712 185.488C242.069 186.105 242.561 186.645 243.102 186.957L261.884 197.801C262.966 198.426 264.737 198.426 265.819 197.801Z"
                fill="#004482" />
            <path id="Vector_17"
                d="M285.99 159.924C285.634 159.306 285.142 158.767 284.601 158.454L265.819 147.61C264.737 146.986 262.966 146.986 261.884 147.61L243.102 158.454C242.02 159.079 241.134 160.612 241.134 161.862V183.55C241.134 184.174 241.356 184.87 241.712 185.488L263.851 172.706L285.99 159.924Z"
                fill="#659AD2" />
            <path id="Vector_18"
                d="M263.851 187.85C255.501 187.85 248.707 181.057 248.707 172.706C248.707 164.355 255.501 157.561 263.851 157.561C269.24 157.561 274.265 160.461 276.966 165.129L270.412 168.921C269.06 166.585 266.546 165.133 263.851 165.133C259.676 165.133 256.279 168.53 256.279 172.706C256.279 176.881 259.676 180.278 263.851 180.278C266.546 180.278 269.061 178.827 270.413 176.49L276.967 180.282C274.266 184.95 269.24 187.85 263.851 187.85Z"
                fill="white" />
            <path id="Vector_19"
                d="M278.996 171.864H277.313V170.182H275.63V171.864H273.948V173.547H275.63V175.23H277.313V173.547H278.996V171.864Z"
                fill="white" />
            <path id="Vector_20"
                d="M285.306 171.864H283.623V170.182H281.941V171.864H280.258V173.547H281.941V175.23H283.623V173.547H285.306V171.864Z"
                fill="white" />
        </g>
    </g>
    <g id="figma">
        <path id="Vector_21"
            d="M197.5 212C206.06 212 213 205.06 213 196.5C213 187.94 206.06 181 197.5 181C188.94 181 182 187.94 182 196.5C182 205.06 188.94 212 197.5 212Z"
            fill="#4C566A" />
        <g id="Clip path group_5">
            <mask id="mask1_0_1" style="mask-type:luminance" maskUnits="userSpaceOnUse" x="191"
                y="188" width="13" height="18">
                <g id="clip2_19_3">
                    <path id="Vector_22" d="M203.178 188.059H191.719V205.248H203.178V188.059Z"
                        fill="white" />
                </g>
            </mask>
            <g mask="url(#mask1_0_1)">
                <g id="Group_2">
                    <path id="Vector_23"
                        d="M194.584 205.248C196.165 205.248 197.448 203.964 197.448 202.383V199.518H194.584C193.003 199.518 191.719 200.802 191.719 202.383C191.719 203.964 193.003 205.248 194.584 205.248Z"
                        fill="#0ACF83" />
                    <path id="Vector_24"
                        d="M191.719 196.653C191.719 195.072 193.003 193.789 194.584 193.789H197.448V199.518H194.584C193.003 199.518 191.719 198.235 191.719 196.653Z"
                        fill="#A259FF" />
                    <path id="Vector_25"
                        d="M191.719 190.924C191.719 189.343 193.003 188.059 194.584 188.059H197.448V193.789H194.584C193.003 193.789 191.719 192.505 191.719 190.924Z"
                        fill="#F24E1E" />
                    <path id="Vector_26"
                        d="M197.448 188.059H200.313C201.894 188.059 203.178 189.343 203.178 190.924C203.178 192.505 201.894 193.789 200.313 193.789H197.448V188.059Z"
                        fill="#FF7262" />
                    <path id="Vector_27"
                        d="M203.178 196.653C203.178 198.235 201.895 199.518 200.313 199.518C198.732 199.518 197.448 198.235 197.448 196.653C197.448 195.072 198.732 193.789 200.313 193.789C201.895 193.789 203.178 195.072 203.178 196.653Z"
                        fill="#1ABCFE" />
                </g>
            </g>
        </g>
    </g>
    <g id="postman">
        <path id="Vector_28"
            d="M150.578 214.156C161.391 214.156 170.156 205.391 170.156 194.578C170.156 183.765 161.391 175 150.578 175C139.765 175 131 183.765 131 194.578C131 205.391 139.765 214.156 150.578 214.156Z"
            fill="#4C566A" />
        <g id="Clip path group_6">
            <path id="Vector_29"
                d="M164.439 196.09C165.438 188.266 159.913 181.114 152.104 180.114C144.295 179.115 137.114 184.64 136.114 192.449C135.115 200.259 140.64 207.425 148.449 208.439C156.273 209.438 163.425 203.913 164.439 196.09Z"
                fill="#FF6C37" />
            <g id="Group_3">
                <path id="Vector_30"
                    d="M155.43 189.166L149.406 195.19L147.707 193.491C153.632 187.567 154.217 188.081 155.43 189.166Z"
                    fill="white" />
                <path id="Vector_31"
                    d="M149.406 195.333C149.363 195.333 149.334 195.319 149.306 195.29L147.593 193.591C147.536 193.534 147.536 193.449 147.593 193.392C153.617 187.367 154.246 187.938 155.516 189.08C155.545 189.109 155.559 189.137 155.559 189.18C155.559 189.223 155.545 189.251 155.516 189.28L149.492 195.29C149.477 195.319 149.434 195.333 149.406 195.333ZM147.907 193.491L149.406 194.991L155.216 189.18C154.16 188.238 153.446 187.952 147.907 193.491Z"
                    fill="#FF6C37" />
                <path id="Vector_32"
                    d="M151.133 196.918L149.491 195.276L155.516 189.251C157.129 190.879 154.717 193.52 151.133 196.918Z"
                    fill="white" />
                <path id="Vector_33"
                    d="M151.133 197.061C151.09 197.061 151.062 197.046 151.033 197.018L149.392 195.376C149.363 195.347 149.363 195.319 149.363 195.276C149.363 195.233 149.377 195.205 149.406 195.176L155.431 189.151C155.488 189.094 155.573 189.094 155.63 189.151C156.002 189.494 156.201 189.98 156.187 190.479C156.159 192.064 154.36 194.077 151.248 197.018C151.205 197.046 151.162 197.061 151.133 197.061ZM149.691 195.276C150.605 196.204 150.991 196.575 151.133 196.718C153.532 194.434 155.859 192.092 155.873 190.479C155.887 190.108 155.745 189.737 155.502 189.451L149.691 195.276Z"
                    fill="#FF6C37" />
                <path id="Vector_34"
                    d="M147.735 193.534L148.949 194.748C148.978 194.776 148.978 194.805 148.949 194.833C148.935 194.848 148.935 194.848 148.92 194.848L146.408 195.39C146.279 195.405 146.165 195.319 146.137 195.19C146.122 195.119 146.151 195.048 146.194 195.005L147.65 193.549C147.678 193.52 147.721 193.506 147.735 193.534Z"
                    fill="white" />
                <path id="Vector_35"
                    d="M146.365 195.533C146.151 195.533 145.994 195.362 145.994 195.148C145.994 195.048 146.037 194.948 146.108 194.876L147.564 193.42C147.65 193.349 147.764 193.349 147.85 193.42L149.063 194.634C149.149 194.705 149.149 194.833 149.063 194.919C149.035 194.948 149.006 194.962 148.963 194.976L146.451 195.519C146.422 195.519 146.394 195.533 146.365 195.533ZM147.693 193.691L146.294 195.09C146.265 195.119 146.251 195.162 146.279 195.205C146.294 195.248 146.336 195.262 146.379 195.248L148.735 194.734L147.693 193.691Z"
                    fill="#FF6C37" />
                <path id="Vector_36"
                    d="M158.614 185.825C157.701 184.94 156.23 184.968 155.345 185.896C154.46 186.824 154.488 188.281 155.416 189.166C156.173 189.894 157.315 190.022 158.215 189.48L156.587 187.852L158.614 185.825Z"
                    fill="white" />
                <path id="Vector_37"
                    d="M157.015 189.951C155.659 189.951 154.56 188.852 154.56 187.495C154.56 186.139 155.659 185.04 157.015 185.04C157.643 185.04 158.257 185.282 158.714 185.725C158.743 185.754 158.757 185.782 158.757 185.825C158.757 185.868 158.743 185.896 158.714 185.925L156.787 187.852L158.3 189.366C158.357 189.423 158.357 189.508 158.3 189.565C158.286 189.58 158.286 189.58 158.272 189.594C157.9 189.822 157.458 189.951 157.015 189.951ZM157.015 185.34C155.816 185.34 154.845 186.31 154.859 187.51C154.859 188.709 155.83 189.68 157.03 189.665C157.358 189.665 157.686 189.594 157.986 189.437L156.487 187.952C156.458 187.924 156.444 187.895 156.444 187.852C156.444 187.809 156.458 187.781 156.487 187.752L158.4 185.839C158.015 185.511 157.529 185.34 157.015 185.34Z"
                    fill="#FF6C37" />
                <path id="Vector_38"
                    d="M158.657 185.868L158.628 185.839L156.587 187.852L158.2 189.466C158.357 189.366 158.514 189.251 158.643 189.123C159.556 188.223 159.556 186.767 158.657 185.868Z"
                    fill="white" />
                <path id="Vector_39"
                    d="M158.214 189.623C158.172 189.623 158.143 189.608 158.114 189.58L156.487 187.952C156.458 187.924 156.444 187.895 156.444 187.852C156.444 187.809 156.458 187.781 156.487 187.752L158.514 185.725C158.571 185.668 158.657 185.668 158.714 185.725L158.757 185.754C159.713 186.71 159.713 188.252 158.771 189.223C158.628 189.366 158.471 189.494 158.3 189.594C158.257 189.608 158.229 189.623 158.214 189.623ZM156.787 187.852L158.229 189.294C158.343 189.223 158.457 189.123 158.543 189.037C159.356 188.223 159.399 186.896 158.614 186.039L156.787 187.852Z"
                    fill="#FF6C37" />
                <path id="Vector_40"
                    d="M155.673 189.423C155.331 189.08 154.774 189.08 154.431 189.423L149.049 194.805L149.948 195.704L155.645 190.708C156.016 190.393 156.044 189.837 155.73 189.466C155.702 189.451 155.688 189.437 155.673 189.423Z"
                    fill="white" />
                <path id="Vector_41"
                    d="M149.934 195.847C149.891 195.847 149.863 195.833 149.834 195.804L148.935 194.905C148.878 194.848 148.878 194.762 148.935 194.705L154.317 189.323C154.717 188.923 155.359 188.923 155.759 189.323C156.159 189.722 156.159 190.365 155.759 190.765C155.745 190.779 155.73 190.793 155.716 190.808L150.02 195.804C150.005 195.833 149.977 195.847 149.934 195.847ZM149.249 194.805L149.948 195.504L155.545 190.593C155.859 190.336 155.887 189.865 155.63 189.551C155.373 189.237 154.902 189.209 154.588 189.466C154.574 189.48 154.56 189.494 154.531 189.508L149.249 194.805Z"
                    fill="#FF6C37" />
                <path id="Vector_42"
                    d="M144.923 200.93C144.866 200.958 144.837 201.015 144.852 201.072L145.094 202.1C145.151 202.243 145.066 202.414 144.909 202.457C144.795 202.5 144.666 202.457 144.595 202.371L143.024 200.815L148.15 195.69L149.92 195.719L151.119 196.918C150.834 197.161 149.106 198.831 144.923 200.93Z"
                    fill="white" />
                <path id="Vector_43"
                    d="M144.809 202.6C144.695 202.6 144.58 202.557 144.509 202.471L142.953 200.915C142.924 200.887 142.91 200.858 142.91 200.815C142.91 200.772 142.924 200.744 142.953 200.715L148.078 195.59C148.107 195.562 148.15 195.547 148.178 195.547L149.948 195.576C149.991 195.576 150.02 195.59 150.048 195.619L151.248 196.818C151.276 196.846 151.29 196.889 151.29 196.932C151.29 196.975 151.276 197.004 151.233 197.032L151.133 197.118C149.62 198.445 147.564 199.773 145.009 201.044L145.251 202.057C145.294 202.243 145.209 202.443 145.037 202.543C144.952 202.586 144.88 202.6 144.809 202.6ZM143.238 200.815L144.709 202.272C144.752 202.343 144.837 202.371 144.909 202.329C144.98 202.286 145.009 202.2 144.966 202.129L144.723 201.101C144.695 200.972 144.752 200.858 144.866 200.801C147.393 199.53 149.434 198.217 150.933 196.918L149.877 195.861L148.235 195.833L143.238 200.815Z"
                    fill="#FF6C37" />
                <path id="Vector_44"
                    d="M141.811 202.043L143.039 200.815L144.866 202.643L141.953 202.443C141.825 202.429 141.739 202.314 141.754 202.186C141.754 202.129 141.768 202.072 141.811 202.043Z"
                    fill="white" />
                <path id="Vector_45"
                    d="M144.866 202.771L141.939 202.571C141.725 202.557 141.582 202.371 141.597 202.157C141.611 202.072 141.639 201.986 141.711 201.929L142.939 200.701C142.996 200.644 143.081 200.644 143.138 200.701L144.966 202.528C145.009 202.571 145.023 202.628 144.994 202.686C144.966 202.743 144.923 202.771 144.866 202.771ZM143.038 201.015L141.911 202.143C141.868 202.172 141.868 202.243 141.911 202.272C141.925 202.286 141.939 202.3 141.968 202.3L144.495 202.471L143.038 201.015Z"
                    fill="#FF6C37" />
                <path id="Vector_46"
                    d="M147.65 196.347C147.564 196.347 147.507 196.275 147.507 196.204C147.507 196.161 147.521 196.133 147.55 196.104L148.935 194.719C148.992 194.662 149.077 194.662 149.135 194.719L150.034 195.619C150.077 195.662 150.091 195.704 150.077 195.761C150.063 195.804 150.02 195.847 149.963 195.861L147.678 196.347C147.664 196.347 147.65 196.347 147.65 196.347ZM149.035 195.019L148.092 195.961L149.634 195.633L149.035 195.019Z"
                    fill="#FF6C37" />
                <path id="Vector_47"
                    d="M149.92 195.719L148.349 196.061C148.235 196.09 148.121 196.018 148.092 195.904C148.078 195.833 148.092 195.761 148.15 195.704L149.02 194.833L149.92 195.719Z"
                    fill="white" />
                <path id="Vector_48"
                    d="M148.321 196.204C148.121 196.204 147.964 196.047 147.964 195.847C147.964 195.747 148.007 195.662 148.064 195.59L148.935 194.719C148.992 194.662 149.078 194.662 149.135 194.719L150.034 195.619C150.077 195.662 150.091 195.704 150.077 195.761C150.063 195.804 150.02 195.847 149.963 195.861L148.392 196.204C148.364 196.204 148.335 196.204 148.321 196.204ZM149.035 195.019L148.264 195.79C148.235 195.819 148.235 195.847 148.25 195.876C148.264 195.904 148.292 195.919 148.335 195.919L149.649 195.633L149.035 195.019Z"
                    fill="#FF6C37" />
                <path id="Vector_49"
                    d="M158.671 187.238C158.643 187.153 158.543 187.11 158.457 187.138C158.371 187.167 158.329 187.267 158.357 187.353C158.357 187.367 158.371 187.381 158.371 187.395C158.457 187.567 158.429 187.781 158.314 187.938C158.257 188.009 158.271 188.109 158.329 188.166C158.4 188.223 158.5 188.209 158.557 188.138C158.771 187.867 158.814 187.524 158.671 187.238Z"
                    fill="#FF6C37" />
            </g>
        </g>
    </g>
    <g id="docker">
        <path id="Vector_50"
            d="M168 261C180.15 261 190 251.15 190 239C190 226.85 180.15 217 168 217C155.85 217 146 226.85 146 239C146 251.15 155.85 261 168 261Z"
            fill="#4C566A" />
        <g id="Clip path group_7">
            <path id="Vector_51"
                d="M183.237 236.946C182.518 236.464 180.629 236.258 179.255 236.626C179.181 235.264 178.475 234.116 177.184 233.115L176.706 232.795L176.388 233.274C175.762 234.22 175.498 235.48 175.592 236.626C175.665 237.332 175.912 238.125 176.388 238.701C174.6 239.734 172.952 239.499 165.653 239.499H154.383C154.35 241.14 154.615 244.296 156.632 246.865C156.854 247.149 157.099 247.424 157.363 247.688C159.003 249.322 161.479 250.52 165.183 250.524C170.832 250.529 175.673 247.489 178.618 240.138C179.586 240.154 182.144 240.311 183.396 237.903C183.426 237.863 183.714 237.265 183.714 237.265L183.237 236.945L183.237 236.946ZM161.738 235.445H158.569V238.6H161.738V235.445ZM165.832 235.445H162.663V238.6H165.832V235.445ZM169.926 235.445H166.757V238.6H169.926V235.445ZM174.02 235.445H170.851V238.6H174.02V235.445ZM157.644 235.445H154.475V238.6H157.644V235.445ZM161.738 231.461H158.569V234.616H161.738V231.461ZM165.832 231.461H162.663V234.616H165.832V231.461ZM169.926 231.461H166.757V234.616H169.926V231.461ZM169.926 227.476H166.757V230.631H169.926V227.476Z"
                fill="#D8DEE9" />
        </g>
    </g>
    <g id="javascript">
        <path id="Vector_52"
            d="M89.1105 250.221C105.74 250.221 119.221 236.74 119.221 220.11C119.221 203.481 105.74 190 89.1105 190C72.4809 190 59 203.481 59 220.11C59 236.74 72.4809 250.221 89.1105 250.221Z"
            fill="#4C566A" />
        <g id="Clip path group_8">
            <path id="Vector_53"
                d="M72.2034 207.203C72.2034 204.994 73.9942 203.203 76.2034 203.203H102.532C104.741 203.203 106.532 204.994 106.532 207.203V233.532C106.532 235.741 104.741 237.532 102.532 237.532H76.2034C73.9942 237.532 72.2034 235.741 72.2034 233.532V207.203Z"
                fill="#F7DF1E" />
            <path id="Vector_54"
                d="M81.2296 231.891L83.8566 230.301C84.3635 231.199 84.8245 231.96 85.9304 231.96C86.9904 231.96 87.6589 231.545 87.6589 229.932V218.963H90.8848V229.978C90.8848 233.319 88.9262 234.84 86.0686 234.84C83.4879 234.84 81.99 233.503 81.2295 231.89M92.637 231.545L95.2637 230.024C95.9553 231.153 96.854 231.983 98.4438 231.983C99.7806 231.983 100.633 231.315 100.633 230.393C100.633 229.287 99.7573 228.895 98.2825 228.25L97.4762 227.904C95.1487 226.913 93.6048 225.669 93.6048 223.042C93.6048 220.622 95.4482 218.779 98.3288 218.779C100.38 218.779 101.854 219.493 102.914 221.36L100.402 222.973C99.8493 221.982 99.2504 221.591 98.3286 221.591C97.3838 221.591 96.7846 222.19 96.7846 222.973C96.7846 223.941 97.3838 224.333 98.7663 224.932L99.5728 225.277C102.315 226.453 103.859 227.651 103.859 230.347C103.859 233.251 101.578 234.84 98.5129 234.84C95.5173 234.84 93.5816 233.412 92.6369 231.545"
                fill="black" />
        </g>
    </g>
    <g id="typescript">
        <path id="Vector_55"
            d="M194.11 176.221C214.606 176.221 231.221 159.606 231.221 139.11C231.221 118.615 214.606 102 194.11 102C173.615 102 157 118.615 157 139.11C157 159.606 173.615 176.221 194.11 176.221Z"
            fill="#4C566A" />
        <g id="Clip path group_9">
            <path id="Vector_56"
                d="M210.834 117.992H176.955C174.685 117.992 172.844 119.833 172.844 122.104V155.983C172.844 158.254 174.685 160.094 176.955 160.094H210.834C213.105 160.094 214.946 158.254 214.946 155.983V122.104C214.946 119.833 213.105 117.992 210.834 117.992Z"
                fill="#3178C6" />
            <path id="Vector_57"
                d="M210.834 117.992H176.955C174.685 117.992 172.844 119.833 172.844 122.104V155.983C172.844 158.254 174.685 160.094 176.955 160.094H210.834C213.105 160.094 214.946 158.254 214.946 155.983V122.104C214.946 119.833 213.105 117.992 210.834 117.992Z"
                fill="#3178C6" />
            <path id="Vector_58" fill-rule="evenodd" clip-rule="evenodd"
                d="M198.906 151.495V155.612C199.575 155.955 200.366 156.212 201.28 156.383C202.194 156.555 203.157 156.641 204.169 156.641C205.156 156.641 206.093 156.546 206.981 156.358C207.869 156.169 208.648 155.858 209.317 155.425C209.986 154.992 210.516 154.426 210.906 153.727C211.297 153.028 211.492 152.164 211.492 151.135C211.492 150.389 211.38 149.735 211.157 149.173C210.934 148.611 210.613 148.112 210.192 147.674C209.772 147.237 209.268 146.845 208.68 146.497C208.092 146.15 207.429 145.822 206.692 145.513C206.151 145.29 205.666 145.074 205.237 144.864C204.808 144.653 204.444 144.439 204.143 144.22C203.843 144.002 203.612 143.77 203.449 143.526C203.286 143.281 203.204 143.005 203.204 142.696C203.204 142.413 203.277 142.158 203.423 141.931C203.569 141.703 203.775 141.508 204.041 141.345C204.307 141.182 204.633 141.056 205.019 140.966C205.405 140.876 205.834 140.831 206.306 140.831C206.649 140.831 207.011 140.856 207.393 140.908C207.775 140.959 208.159 141.039 208.545 141.146C208.931 141.253 209.306 141.388 209.671 141.551C210.036 141.714 210.372 141.903 210.681 142.117V138.271C210.055 138.031 209.371 137.853 208.628 137.737C207.886 137.621 207.035 137.563 206.074 137.563C205.096 137.563 204.169 137.668 203.294 137.878C202.419 138.089 201.649 138.417 200.984 138.862C200.319 139.308 199.794 139.877 199.408 140.567C199.022 141.257 198.828 142.083 198.828 143.043C198.828 144.27 199.182 145.316 199.89 146.182C200.598 147.048 201.673 147.782 203.114 148.382C203.68 148.613 204.208 148.841 204.697 149.064C205.186 149.287 205.609 149.518 205.964 149.758C206.321 149.998 206.602 150.26 206.808 150.543C207.013 150.826 207.116 151.148 207.116 151.508C207.116 151.774 207.052 152.02 206.923 152.248C206.795 152.475 206.599 152.672 206.338 152.839C206.076 153.007 205.75 153.137 205.36 153.232C204.969 153.326 204.512 153.373 203.989 153.373C203.097 153.373 202.213 153.217 201.338 152.904C200.463 152.591 199.652 152.121 198.906 151.495ZM191.985 141.353H197.266V137.974H182.547V141.353H187.802V156.394H191.985V141.353Z"
                fill="white" />
        </g>
    </g>
    <g id="c#">
        <path id="Vector_59"
            d="M263.99 346.98C300.987 346.98 330.98 316.987 330.98 279.99C330.98 242.992 300.987 213 263.99 213C226.992 213 197 242.992 197 279.99C197 316.987 226.992 346.98 263.99 346.98Z"
            fill="#4C566A" />
        <g id="Clip path group_10">
            <path id="Vector_60"
                d="M305.996 260.439C305.995 258.842 305.656 257.431 304.969 256.221C304.295 255.03 303.285 254.032 301.93 253.243C290.747 246.757 279.554 240.292 268.374 233.8C265.361 232.05 262.439 232.114 259.447 233.889C254.996 236.529 232.711 249.37 226.07 253.239C223.336 254.832 222.005 257.269 222.004 260.436C222 273.478 222.004 286.521 222 299.564C222 301.125 222.326 302.509 222.982 303.701C223.657 304.928 224.681 305.953 226.067 306.76C232.708 310.629 254.996 323.47 259.446 326.111C262.439 327.887 265.361 327.95 268.375 326.2C279.555 319.707 290.749 313.242 301.933 306.756C303.319 305.95 304.344 304.924 305.018 303.698C305.674 302.505 306 301.122 306 299.56C306 299.56 306 273.482 305.996 260.439Z"
                fill="#A179DC" />
            <path id="Vector_61"
                d="M264.129 280L222.913 303.765C223.589 304.988 224.615 306.011 226.003 306.816C232.655 310.674 254.98 323.48 259.438 326.114C262.436 327.886 265.363 327.949 268.383 326.203C279.581 319.728 290.794 313.28 301.997 306.812C303.385 306.007 304.411 304.984 305.087 303.762L264.129 280Z"
                fill="#280068" />
            <path id="Vector_62"
                d="M305.996 260.479C305.995 258.882 305.655 257.471 304.966 256.261L264 279.914L305.015 303.739C305.673 302.546 305.999 301.163 306 299.601C306 299.601 306 273.522 305.996 260.479Z"
                fill="#390091" />
            <path id="Vector_63"
                d="M288.195 270.87V275.435H292.761V270.87H295.043V275.435H299.609V277.718H295.043V282.282H299.609V284.565H295.043V289.13H292.761V284.565H288.195V289.13H285.913V284.565H281.348V282.282H285.913V277.718H281.348V275.435H285.913V270.87H288.195ZM292.761 277.717H288.195V282.282H292.761V277.717Z"
                fill="white" />
            <path id="Vector_64"
                d="M264.265 248.957C275.847 248.957 285.959 255.194 291.375 264.464L291.322 264.375L277.695 272.155C275.011 267.648 270.089 264.606 264.443 264.543L264.265 264.542C255.655 264.542 248.675 271.463 248.675 280C248.672 282.691 249.381 285.335 250.731 287.669C253.418 292.321 258.47 295.458 264.265 295.458C270.096 295.458 275.176 292.281 277.85 287.58L277.785 287.692L291.391 295.508C286.034 304.7 276.061 310.918 264.614 311.042L264.265 311.043C252.646 311.043 242.506 304.768 237.103 295.449C234.466 290.899 232.957 285.625 232.957 280C232.957 262.855 246.973 248.957 264.265 248.957L264.265 248.957Z"
                fill="white" />
        </g>
    </g>
    <g id="aspnet">
        <path id="Vector_65"
            d="M336 236C355.33 236 371 220.33 371 201C371 181.67 355.33 166 336 166C316.67 166 301 181.67 301 201C301 220.33 316.67 236 336 236Z"
            fill="#4C566A" />
        <g id="Clip path group_11">
            <path id="Vector_66"
                d="M339.198 207.629C339.284 208.061 339.327 208.816 339.327 209.894V218.345H336.997V209.985C336.997 209.036 336.907 208.326 336.726 207.856C336.544 207.386 336.223 207.01 335.761 206.73C335.3 206.45 334.758 206.309 334.137 206.309C333.145 206.309 332.289 206.624 331.568 207.254C330.848 207.884 330.488 209.079 330.488 210.839V218.345H328.158V204.601H330.255V206.555C331.264 205.045 332.722 204.29 334.629 204.29C335.457 204.29 336.219 204.439 336.913 204.737C337.608 205.034 338.128 205.425 338.473 205.908C338.818 206.391 339.059 206.965 339.198 207.629ZM361.737 218.43C361.082 218.568 360.495 218.637 359.977 218.637C359.132 218.637 358.476 218.503 358.01 218.236C357.544 217.968 357.216 217.617 357.026 217.181C356.837 216.746 356.742 215.829 356.742 214.431V206.132H351.684C351.695 206.144 351.708 206.154 351.72 206.167C352.885 207.418 353.467 209.178 353.467 211.447C353.467 211.585 353.463 211.792 353.454 212.068H343.204C343.291 213.578 343.718 214.735 344.485 215.537C345.253 216.339 346.211 216.74 347.359 216.74C348.213 216.74 348.942 216.516 349.546 216.067C350.15 215.619 350.629 214.903 350.983 213.919L353.39 214.217C353.01 215.623 352.307 216.715 351.28 217.491C350.253 218.268 348.942 218.656 347.346 218.656C345.335 218.656 343.741 218.037 342.564 216.799C341.386 215.561 340.797 213.824 340.797 211.59C340.797 209.277 341.392 207.483 342.583 206.206C343.774 204.929 345.318 204.29 347.216 204.29C347.446 204.29 347.671 204.3 347.89 204.32H356.742V201.338H359.058V204.32H361.401V206.131H359.058V214.56C359.058 215.224 359.099 215.652 359.181 215.841C359.263 216.031 359.397 216.182 359.582 216.294C359.768 216.406 360.033 216.463 360.378 216.463C360.637 216.463 360.978 216.432 361.401 216.372L361.737 218.43ZM351.008 210.153C350.905 208.997 350.611 208.13 350.128 207.552C349.386 206.654 348.424 206.206 347.242 206.206C346.172 206.206 345.273 206.564 344.544 207.28C343.815 207.996 343.411 208.954 343.334 210.153H351.008ZM324.841 215.547C324.42 215.547 324.063 215.697 323.769 216.001C323.475 216.303 323.329 216.669 323.329 217.102C323.329 217.523 323.475 217.887 323.769 218.194C324.063 218.502 324.42 218.656 324.841 218.656C325.273 218.656 325.641 218.502 325.943 218.194C326.246 217.887 326.397 217.523 326.397 217.102C326.397 216.68 326.246 216.314 325.943 216.007C325.641 215.699 325.273 215.547 324.841 215.547ZM339.779 202.168C338.571 202.699 337.048 202.964 335.211 202.964C331.984 202.964 329.749 202.343 328.507 201.101C328.501 201.095 328.497 201.09 328.491 201.085L329.076 202.641H322.937L321.987 199.509H315.332L314.407 202.641H308.421L315.552 183.668H321.947L326.71 196.344L331.975 196.014C332.096 196.92 332.342 197.611 332.713 198.085C333.317 198.853 334.179 199.237 335.301 199.237C336.138 199.237 336.783 199.041 337.236 198.648C337.689 198.255 337.916 197.8 337.916 197.283C337.916 196.791 337.7 196.351 337.268 195.963C336.837 195.574 335.836 195.208 334.266 194.862C331.695 194.285 329.861 193.517 328.766 192.559C327.661 191.601 327.109 190.38 327.109 188.896C327.109 187.921 327.392 187 327.957 186.133C328.522 185.266 329.372 184.585 330.506 184.088C331.641 183.592 333.196 183.344 335.172 183.344C337.596 183.344 339.445 183.795 340.718 184.696C341.99 185.598 342.747 187.033 342.989 189L337.463 189.323C337.316 188.469 337.008 187.848 336.537 187.46C336.067 187.071 335.418 186.877 334.59 186.877C333.908 186.877 333.395 187.022 333.05 187.311C332.704 187.6 332.532 187.952 332.532 188.366C332.532 188.668 332.674 188.94 332.959 189.181C333.235 189.431 333.891 189.664 334.926 189.88C337.489 190.432 339.324 190.991 340.433 191.556C341.542 192.121 342.348 192.822 342.853 193.659C343.112 194.087 343.303 194.543 343.429 195.023V183.668H353.174C355.297 183.668 356.886 184.172 357.943 185.182C359 186.191 359.529 187.628 359.529 189.492C359.529 191.407 358.953 192.904 357.801 193.982C356.649 195.061 354.891 195.6 352.527 195.6H349.317V202.641H343.429V197.959C343.265 198.615 342.989 199.24 342.601 199.832C341.927 200.859 340.987 201.638 339.779 202.168ZM349.317 191.756H350.754C351.884 191.756 352.678 191.56 353.135 191.167C353.593 190.775 353.821 190.273 353.821 189.66C353.821 189.064 353.623 188.56 353.226 188.145C352.829 187.731 352.083 187.524 350.987 187.524H349.317V191.756ZM320.771 195.406L318.677 188.586L316.605 195.406H320.771Z"
                fill="#D8DEE9" />
        </g>
    </g>
    <g id="react">
        <path id="Vector_67"
            d="M162.408 104.816C176.993 104.816 188.816 92.9929 188.816 78.4081C188.816 63.8233 176.993 52 162.408 52C147.823 52 136 63.8233 136 78.4081C136 92.9929 147.823 104.816 162.408 104.816Z"
            fill="#4C566A" />
        <path id="Vector_68"
            d="M180.156 78.6084C180.156 77.9542 179.814 77.2345 178.987 76.4836C178.16 75.7326 176.916 75.0174 175.309 74.3999C174.69 74.1623 174.024 73.9414 173.316 73.7398C172.836 75.298 172.208 76.9357 171.443 78.6084C172.208 80.2805 172.836 81.9177 173.316 83.4754C174.024 83.2738 174.691 83.0545 175.309 82.817C176.916 82.1994 178.16 81.4842 178.987 80.7332C179.814 79.9823 180.156 79.2626 180.156 78.6084ZM153.066 85.5066C152.885 86.2237 152.741 86.9135 152.636 87.5707C152.364 89.2797 152.358 90.7211 152.591 91.817C152.824 92.913 153.273 93.5719 153.836 93.8991C154.399 94.2261 155.19 94.2867 156.249 93.9418C157.309 93.5967 158.546 92.8709 159.881 91.7792C160.394 91.3596 160.915 90.8891 161.442 90.3736C160.342 89.1757 159.247 87.8093 158.19 86.3063C156.369 86.1368 154.646 85.8666 153.066 85.5066ZM172.151 85.5066C170.57 85.8665 168.848 86.1369 167.027 86.3063C165.97 87.8093 164.875 89.1757 163.774 90.3736C164.302 90.8895 164.824 91.3593 165.338 91.7792C166.673 92.8709 167.909 93.5967 168.969 93.9418C170.029 94.2867 170.819 94.2261 171.382 93.8991C171.946 93.5719 172.395 92.913 172.628 91.817C172.86 90.7211 172.854 89.2797 172.582 87.5707C172.477 86.9134 172.331 86.2239 172.151 85.5066ZM164.845 86.459C164.111 86.4926 163.365 86.5115 162.609 86.5115C161.853 86.5115 161.106 86.4926 160.372 86.459C161.111 87.4402 161.861 88.3446 162.609 89.1634C163.357 88.3448 164.106 87.4399 164.845 86.459ZM162.609 72.3867C161.411 72.3867 160.242 72.4314 159.113 72.5165C158.476 73.4576 157.854 74.4544 157.255 75.4984C156.656 76.542 156.111 77.5826 155.62 78.6084C156.111 79.6345 156.656 80.6762 157.255 81.7201C157.853 82.7633 158.476 83.7582 159.113 84.6987C160.242 84.7838 161.411 84.8301 162.609 84.8301C163.807 84.8301 164.975 84.7837 166.103 84.6987C166.74 83.758 167.365 82.7636 167.964 81.7201C168.562 80.6764 169.106 79.6343 169.597 78.6084C169.106 77.5828 168.562 76.5418 167.964 75.4984C167.364 74.4541 166.741 73.4579 166.103 72.5165C164.975 72.4315 163.807 72.3867 162.609 72.3867ZM154.733 80.5822C154.258 81.7172 153.855 82.8242 153.524 83.8859C154.603 84.1283 155.757 84.3287 156.971 84.482C156.575 83.8594 156.185 83.2193 155.807 82.5608C155.429 81.9011 155.072 81.2395 154.733 80.5822ZM170.483 80.5822C170.145 81.2393 169.789 81.9013 169.411 82.5608C169.033 83.2196 168.642 83.8592 168.246 84.482C169.46 84.3288 170.614 84.1283 171.693 83.8859C171.362 82.8241 170.959 81.7172 170.483 80.5822ZM156.971 72.7332C155.757 72.8864 154.603 73.0869 153.524 73.3293C153.855 74.391 154.258 75.498 154.733 76.6331C155.072 75.9764 155.429 75.3167 155.807 74.6577C156.185 73.9984 156.574 73.3565 156.971 72.7332ZM168.246 72.7332C168.642 73.3567 169.033 73.9982 169.411 74.6577C169.789 75.3165 170.145 75.9766 170.483 76.6331C170.959 75.4979 171.362 74.3911 171.693 73.3293C170.614 73.0869 169.46 72.8864 168.246 72.7332ZM156.249 63.2751C155.19 62.9301 154.399 62.9923 153.836 63.3194C153.273 63.6466 152.824 64.3039 152.591 65.3999C152.358 66.4958 152.364 67.9368 152.636 69.6462C152.741 70.3033 152.885 70.9932 153.066 71.7102C154.647 71.3502 156.37 71.0783 158.191 70.9089C159.248 69.4063 160.344 68.0408 161.444 66.8432C160.917 66.3275 160.394 65.8574 159.881 65.4376C158.546 64.346 157.309 63.62 156.249 63.2751ZM171.382 63.3194C170.819 62.9923 170.029 62.9301 168.969 63.2751C167.909 63.62 166.673 64.346 165.338 65.4376C164.824 65.8576 164.3 66.3272 163.773 66.8432C164.873 68.0408 165.968 69.4063 167.025 70.9089C168.847 71.0783 170.57 71.3503 172.151 71.7102C172.331 70.993 172.477 70.3034 172.582 69.6462C172.854 67.9368 172.861 66.4958 172.628 65.3999C172.395 64.3039 171.946 63.6466 171.382 63.3194ZM162.609 68.0534C161.861 68.8722 161.111 69.7767 160.372 70.7578C161.106 70.7242 161.853 70.7053 162.609 70.7053C163.365 70.7053 164.111 70.7242 164.845 70.7578C164.106 69.777 163.357 68.872 162.609 68.0534ZM145.062 78.6084C145.062 79.2626 145.404 79.9823 146.231 80.7332C147.058 81.4842 148.302 82.1994 149.909 82.817C150.527 83.0543 151.193 83.2739 151.9 83.4754C152.381 81.9177 153.009 80.2805 153.774 78.6084C153.009 76.9358 152.381 75.2979 151.9 73.7398C151.193 73.9413 150.527 74.1625 149.909 74.3999C148.302 75.0174 147.058 75.7326 146.231 76.4836C145.404 77.2345 145.063 77.9542 145.062 78.6084ZM166.87 78.6084C166.87 80.9764 164.963 82.8958 162.609 82.8958C160.256 82.8958 158.348 80.9764 158.348 78.6084C158.348 76.2406 160.256 74.3211 162.609 74.3211C164.962 74.3211 166.87 76.2406 166.87 78.6084ZM181.827 78.6084C181.827 79.9041 181.14 81.0425 180.107 81.9812C179.073 82.92 177.624 83.728 175.905 84.3884C175.239 84.6441 174.525 84.8781 173.772 85.0928C173.964 85.8574 174.119 86.5964 174.232 87.3046C174.523 89.1328 174.552 90.8 174.261 92.17C173.97 93.5397 173.333 94.7077 172.218 95.3556C171.103 96.0033 169.779 95.9739 168.455 95.5427C167.13 95.1115 165.711 94.2522 164.283 93.0846C163.73 92.6323 163.171 92.1285 162.609 91.5789C162.047 92.1285 161.488 92.6323 160.935 93.0846C159.507 94.2522 158.088 95.1115 156.763 95.5427C155.439 95.9739 154.115 96.0033 153 95.3556C151.885 94.7077 151.248 93.5397 150.957 92.17C150.666 90.8 150.695 89.1328 150.986 87.3046C151.099 86.5965 151.253 85.8573 151.445 85.0928C150.692 84.8783 149.979 84.644 149.314 84.3884C147.595 83.728 146.145 82.92 145.111 81.9812C144.078 81.0425 143.391 79.9041 143.391 78.6084C143.391 77.3127 144.078 76.1743 145.111 75.2357C146.145 74.2969 147.595 73.4905 149.314 72.8301C149.979 72.5744 150.691 72.337 151.445 72.1224C151.253 71.3585 151.099 70.6198 150.986 69.9122C150.695 68.0842 150.666 66.4184 150.957 65.0485C151.248 63.6786 151.885 62.5109 153 61.8629C154.116 61.215 155.439 61.2445 156.763 61.6757C158.088 62.107 159.507 62.9662 160.935 64.1339C161.488 64.586 162.047 65.0885 162.609 65.638C163.171 65.0885 163.731 64.586 164.283 64.1339C165.711 62.9662 167.13 62.107 168.455 61.6757C169.779 61.2445 171.103 61.215 172.218 61.8629C173.333 62.5109 173.97 63.6786 174.261 65.0485C174.552 66.4184 174.523 68.0842 174.232 69.9122C174.119 70.6199 173.964 71.3584 173.772 72.1224C174.526 72.3371 175.239 72.5742 175.905 72.8301C177.624 73.4905 179.073 74.2969 180.107 75.2357C181.14 76.1743 181.827 77.3127 181.827 78.6084Z"
            fill="#61DAFB" />
    </g>
    <g id="tailwindcss">
        <path id="Vector_69"
            d="M114 83C124.493 83 133 74.4934 133 64C133 53.5066 124.493 45 114 45C103.507 45 95 53.5066 95 64C95 74.4934 103.507 83 114 83Z"
            fill="#4C566A" />
        <g id="Clip path group_12">
            <mask id="mask2_0_1" style="mask-type:luminance" maskUnits="userSpaceOnUse" x="98"
                y="54" width="32" height="20">
                <g id="prefix__clip0">
                    <path id="Vector_70" d="M98.403 54.6418H129.03V73.0179H98.403V54.6418Z"
                        fill="white" />
                </g>
            </mask>
            <g mask="url(#mask2_0_1)">
                <g id="Group_4">
                    <path id="Vector_71" fill-rule="evenodd" clip-rule="evenodd"
                        d="M113.716 54.6418C109.633 54.6418 107.081 56.6836 106.06 60.7672C107.591 58.7254 109.378 57.9597 111.419 58.4701C112.584 58.7611 113.417 59.6067 114.339 60.542C115.84 62.066 117.578 63.8298 121.373 63.8298C125.457 63.8298 128.009 61.7881 129.03 57.7045C127.498 59.7463 125.712 60.5119 123.67 60.0015C122.505 59.7105 121.673 58.8649 120.751 57.9296C119.25 56.4057 117.512 54.6418 113.716 54.6418ZM106.06 63.8298C101.976 63.8298 99.4238 65.8716 98.403 69.9552C99.9343 67.9134 101.721 67.1478 103.763 67.6582C104.928 67.9497 105.76 68.7948 106.682 69.7301C108.183 71.254 109.921 73.0179 113.716 73.0179C117.8 73.0179 120.352 70.9761 121.373 66.8925C119.842 68.9343 118.055 69.7 116.013 69.1895C114.848 68.8986 114.016 68.053 113.094 67.1177C111.593 65.5937 109.855 63.8298 106.06 63.8298Z"
                        fill="#38BDF8" />
                </g>
            </g>
        </g>
    </g>
    <g id="bootstrap">
        <path id="Vector_72"
            d="M148.5 49C156.508 49 163 42.5081 163 34.5C163 26.4919 156.508 20 148.5 20C140.492 20 134 26.4919 134 34.5C134 42.5081 140.492 49 148.5 49Z"
            fill="#4C566A" />
        <g id="Group 1">
            <path id="Vector_73"
                d="M139.694 27.8447C139.651 26.6178 140.63 25.4865 141.954 25.4865H155.518C156.842 25.4865 157.821 26.6178 157.778 27.8447C157.735 29.0232 157.79 30.5498 158.184 31.7945C158.579 33.0432 159.245 33.8324 160.335 33.9338V35.0837C159.245 35.1851 158.579 35.9743 158.184 37.2229C157.79 38.4677 157.735 39.9943 157.778 41.1728C157.821 42.3996 156.842 43.531 155.518 43.531H141.954C140.63 43.531 139.651 42.3996 139.694 41.1728C139.736 39.9943 139.682 38.4677 139.288 37.2229C138.893 35.9743 138.226 35.1851 137.135 35.0837V33.9338C138.226 33.8324 138.893 33.0432 139.288 31.7945C139.682 30.5498 139.736 29.0232 139.694 27.8447Z"
                fill="url(#paint0_linear_0_1)" />
            <g id="Vector (Stroke)" filter="url(#filter0_d_0_1)">
                <path
                    d="M150.221 32.3084C150.221 31.9667 150.104 31.7429 149.911 31.5927C149.702 31.431 149.357 31.3172 148.84 31.3172H147.152V33.3999H148.512C149.147 33.3999 149.581 33.2736 149.845 33.0868C150.089 32.914 150.221 32.6666 150.221 32.3084ZM150.682 36.499C150.682 36.091 150.539 35.8264 150.281 35.6464C149.999 35.4497 149.531 35.3211 148.827 35.3211H147.152V37.6962H148.917C149.581 37.6962 150.024 37.5647 150.292 37.367C150.54 37.1839 150.682 36.9124 150.682 36.499ZM152.569 32.1025C152.569 32.9246 152.14 33.6811 151.493 34.1431C152.447 34.584 153.065 35.4645 153.065 36.5917C153.065 37.5461 152.695 38.3419 152.002 38.8894C151.321 39.428 150.367 39.6977 149.238 39.6977H144.804V29.3164H149.217C150.176 29.3164 151.011 29.5695 151.614 30.0566C152.224 30.5501 152.569 31.2622 152.569 32.1025Z"
                    fill="white" />
            </g>
        </g>
    </g>
    <defs>
        <filter id="filter0_d_0_1" x="128.804" y="17.3164" width="40.2604" height="42.3813"
            filterUnits="userSpaceOnUse" color-interpolation-filters="sRGB">
            <feFlood flood-opacity="0" result="BackgroundImageFix" />
            <feColorMatrix in="SourceAlpha" type="matrix"
                values="0 0 0 0 0 0 0 0 0 0 0 0 0 0 0 0 0 0 127 0" result="hardAlpha" />
            <feOffset dy="4" />
            <feGaussianBlur stdDeviation="8" />
            <feColorMatrix type="matrix" values="0 0 0 0 0 0 0 0 0 0 0 0 0 0 0 0 0 0 0.15 0" />
            <feBlend mode="normal" in2="BackgroundImageFix" result="effect1_dropShadow_0_1" />
            <feBlend mode="normal" in="SourceGraphic" in2="effect1_dropShadow_0_1" result="shape" />
        </filter>
        <linearGradient id="paint0_linear_0_1" x1="140.582" y1="25.9641" x2="160.473" y2="42.141"
            gradientUnits="userSpaceOnUse">
            <stop stop-color="#9013FE" />
            <stop offset="1" stop-color="#6610F2" />
        </linearGradient>
    </defs>
</svg>