<svg width="429" height="388" viewBox="-20 -40 449 448" fill="none" xmlns="http://www.w3.org/2000/svg">
	<g id="unity">
		<circle cx="142.168" cy="326.121" r="61.8793" fill="#4C566A" />
		<g clip-path="url(#clip0_19_3)">
			<path d="M147.074 326.802L159.379 347.485L165.325 326.802L159.379 306.124L147.074 326.802ZM141.076 323.443L153.383 302.763L131.949 308.108L116.464 323.443H141.076ZM153.38 350.847L141.076 330.164H116.464L131.949 345.5L153.38 350.847ZM170.948 333.841L163.44 361.027L135.419 353.741L131.271 346.643L122.854 346.701L102.345 326.8L122.854 306.904H122.855L131.268 306.964L135.422 299.866L163.44 292.581L170.948 319.762L166.684 326.802L170.948 333.841Z" fill="#D8DEE9" />
		</g>
	</g>
	<g id="terminal">
		<circle cx="349.966" cy="77.3491" r="68.1509" fill="#4C566A" />
		<g clip-path="url(#clip1_19_3)">
			<path d="M386.898 44.2858H311.683C310.839 44.2858 310.155 44.9938 310.155 45.8671V108.909C310.155 109.783 310.839 110.491 311.683 110.491H386.898C387.742 110.491 388.427 109.783 388.427 108.909V45.8671C388.427 44.9938 387.742 44.2858 386.898 44.2858Z" fill="black" />
			<path d="M318.789 51.1718C318.528 50.9011 318.212 50.7658 317.842 50.7658C317.472 50.7658 317.155 50.9024 316.891 51.1757C316.631 51.445 316.499 51.7729 316.499 52.1555C316.499 52.538 316.631 52.8659 316.891 53.1353L321.001 57.3863L316.895 61.6334C316.631 61.9067 316.499 62.2346 316.495 62.6171C316.499 62.9997 316.631 63.3276 316.891 63.5969C317.155 63.8663 317.472 64.0029 317.838 64.0068C318.212 64.0068 318.529 63.8702 318.793 63.5969L323.36 58.8697C324.318 57.8821 324.318 56.8905 323.36 55.899L318.789 51.1718ZM336.689 61.6412C336.425 61.368 336.104 61.2313 335.731 61.2313V61.2294H326.915V61.2313C326.541 61.2313 326.224 61.368 325.96 61.6412C325.696 61.9145 325.564 62.2424 325.564 62.6288C325.564 63.0153 325.696 63.3471 325.96 63.6203C326.224 63.8936 326.541 64.0302 326.915 64.0302V64.0283H335.731V64.0302C336.104 64.0302 336.425 63.8936 336.689 63.6203C336.954 63.3471 337.086 63.0153 337.086 62.6288C337.086 62.2424 336.954 61.9145 336.689 61.6412Z" fill="white" />
		</g>
	</g>
	<g id="figma">
		<circle cx="196.522" cy="41.8103" r="41.8103" fill="#4C566A" />
		<g clip-path="url(#clip2_19_3)">
			<path d="M204.111 65.4063C199.845 65.4063 196.384 61.9445 196.384 57.679V49.9517H204.111C208.376 49.9517 211.838 53.4135 211.838 57.679C211.838 61.9445 208.376 65.4063 204.111 65.4063Z" fill="#0ACF83" />
			<path d="M211.838 42.2243C211.838 37.9589 208.376 34.497 204.111 34.497H196.384V49.9517H204.111C208.376 49.9517 211.838 46.4898 211.838 42.2243Z" fill="#A259FF" />
			<path d="M211.838 26.7697C211.838 22.5042 208.376 19.0424 204.111 19.0424H196.384V34.497H204.111C208.376 34.497 211.838 31.0352 211.838 26.7697Z" fill="#F24E1E" />
			<path d="M196.384 19.0424H188.656C184.391 19.0424 180.929 22.5042 180.929 26.7697C180.929 31.0352 184.391 34.497 188.656 34.497H196.384V19.0424Z" fill="#FF7262" />
			<path d="M180.929 42.2243C180.929 46.4898 184.391 49.9517 188.656 49.9517C192.922 49.9517 196.384 46.4898 196.384 42.2243C196.384 37.9589 192.922 34.497 188.656 34.497C184.391 34.497 180.929 37.9589 180.929 42.2243Z" fill="#1ABCFE" />
		</g>
	</g>
	<g id="premiere">
		<circle cx="249.621" cy="196.927" r="45.5733" fill="#4C566A" />
		<g clip-path="url(#clip3_19_3)">
			<path d="M232.268 172.11H266.071C271.197 172.11 275.34 176.213 275.34 181.288V213.468C275.34 218.543 271.197 222.646 266.071 222.646H232.268C227.142 222.646 222.999 218.543 222.999 213.468V181.288C222.999 176.213 227.142 172.11 232.268 172.11Z" fill="#00005B" />
			<path d="M235.43 207.529V185.284C235.43 185.133 235.495 185.046 235.648 185.046C236.019 185.046 236.368 185.046 236.869 185.025C237.393 185.003 237.938 185.003 238.527 184.981C239.116 184.96 239.748 184.96 240.424 184.938C241.1 184.917 241.754 184.917 242.409 184.917C244.197 184.917 245.68 185.133 246.901 185.586C247.992 185.953 248.995 186.558 249.824 187.357C250.522 188.048 251.067 188.89 251.416 189.819C251.743 190.726 251.917 191.655 251.917 192.627C251.917 194.484 251.481 196.017 250.609 197.227C249.737 198.436 248.515 199.343 247.098 199.862C245.615 200.402 243.979 200.596 242.191 200.596C241.667 200.596 241.318 200.596 241.1 200.574C240.882 200.553 240.577 200.553 240.162 200.553V207.485C240.184 207.636 240.075 207.766 239.922 207.788H239.835H235.692C235.517 207.788 235.43 207.701 235.43 207.507V207.529ZM240.184 189.236V196.492C240.489 196.514 240.773 196.536 241.035 196.536H242.191C243.041 196.536 243.892 196.406 244.699 196.147C245.397 195.953 246.007 195.542 246.487 195.002C246.945 194.462 247.163 193.728 247.163 192.778C247.185 192.108 247.01 191.439 246.661 190.856C246.291 190.294 245.767 189.862 245.135 189.625C244.328 189.301 243.456 189.171 242.561 189.193C241.994 189.193 241.493 189.193 241.078 189.214C240.642 189.193 240.337 189.214 240.184 189.236V189.236Z" fill="#9999FF" />
			<path d="M255.058 190.51H258.874C259.093 190.51 259.267 190.661 259.332 190.856C259.398 191.028 259.442 191.201 259.463 191.396C259.507 191.612 259.551 191.849 259.572 192.065C259.594 192.303 259.616 192.562 259.616 192.843C260.27 192.087 261.055 191.46 261.95 190.985C262.953 190.424 264.109 190.143 265.265 190.143C265.417 190.121 265.548 190.229 265.57 190.381V190.467V194.678C265.57 194.851 265.461 194.916 265.221 194.916C264.436 194.894 263.629 194.959 262.866 195.132C262.233 195.261 261.622 195.456 261.034 195.715C260.619 195.909 260.227 196.169 259.921 196.514V207.528C259.921 207.744 259.834 207.831 259.638 207.831H255.341C255.167 207.852 255.014 207.744 254.992 207.572V207.485V195.521C254.992 195.002 254.992 194.462 254.971 193.901C254.949 193.339 254.949 192.778 254.927 192.216C254.927 191.72 254.883 191.244 254.84 190.748C254.818 190.64 254.883 190.532 254.992 190.51C254.992 190.489 255.036 190.489 255.058 190.51V190.51Z" fill="#9999FF" />
		</g>
	</g>
	<g id="photoshop">
		<circle cx="399.302" cy="205.289" r="29.6853" fill="#4C566A" />
		<g clip-path="url(#clip4_19_3)">
			<path d="M387.998 189.124H410.017C413.356 189.124 416.055 191.796 416.055 195.102V216.063C416.055 219.369 413.356 222.042 410.017 222.042H387.998C384.66 222.042 381.961 219.369 381.961 216.063V195.102C381.961 191.796 384.66 189.124 387.998 189.124Z" fill="#001E36" />
			<path d="M389.632 212.209V197.733C389.632 197.635 389.675 197.578 389.774 197.578C390.016 197.578 390.243 197.578 390.57 197.564C390.91 197.55 391.266 197.55 391.649 197.536C392.033 197.522 392.445 197.522 392.885 197.508C393.325 197.494 393.752 197.494 394.178 197.494C395.343 197.494 396.309 197.635 397.104 197.93C397.815 198.169 398.468 198.563 399.008 199.083C399.462 199.534 399.818 200.082 400.045 200.687C400.258 201.278 400.372 201.883 400.372 202.516C400.372 203.726 400.087 204.725 399.519 205.512C398.951 206.3 398.155 206.891 397.232 207.229C396.266 207.58 395.201 207.707 394.036 207.707C393.695 207.707 393.468 207.707 393.325 207.693C393.183 207.679 392.985 207.679 392.715 207.679V212.195C392.729 212.293 392.658 212.377 392.558 212.392C392.544 212.392 392.53 212.392 392.502 212.392H389.802C389.689 212.392 389.632 212.335 389.632 212.209ZM392.729 200.293V205.02C392.928 205.034 393.112 205.048 393.283 205.048H394.036C394.59 205.048 395.144 204.964 395.669 204.795C396.124 204.668 396.522 204.401 396.834 204.049C397.133 203.698 397.275 203.219 397.275 202.6C397.289 202.164 397.175 201.728 396.948 201.348C396.706 200.983 396.366 200.701 395.954 200.547C395.428 200.336 394.86 200.251 394.277 200.265C393.908 200.265 393.581 200.265 393.311 200.279C393.027 200.265 392.828 200.279 392.729 200.293Z" fill="#31A8FF" />
			<path d="M409.236 204.162C408.81 203.937 408.355 203.782 407.872 203.684C407.347 203.571 406.821 203.501 406.281 203.501C405.997 203.487 405.699 203.529 405.429 203.599C405.244 203.641 405.088 203.74 404.988 203.881C404.917 203.993 404.875 204.134 404.875 204.26C404.875 204.387 404.932 204.514 405.017 204.626C405.145 204.781 405.315 204.907 405.5 205.006C405.827 205.175 406.168 205.33 406.509 205.47C407.276 205.723 408.014 206.075 408.696 206.497C409.165 206.793 409.549 207.186 409.818 207.665C410.046 208.115 410.159 208.607 410.145 209.114C410.159 209.775 409.961 210.436 409.591 210.985C409.193 211.547 408.639 211.984 408 212.237C407.304 212.532 406.452 212.687 405.429 212.687C404.775 212.687 404.136 212.631 403.497 212.504C403 212.42 402.502 212.265 402.048 212.054C401.948 211.998 401.877 211.899 401.892 211.787V209.339C401.892 209.297 401.906 209.24 401.948 209.212C401.991 209.184 402.034 209.198 402.076 209.226C402.63 209.55 403.213 209.775 403.838 209.916C404.378 210.056 404.946 210.127 405.514 210.127C406.054 210.127 406.437 210.056 406.693 209.93C406.92 209.831 407.077 209.592 407.077 209.339C407.077 209.142 406.963 208.959 406.736 208.776C406.509 208.593 406.04 208.382 405.344 208.115C404.619 207.862 403.951 207.524 403.326 207.102C402.886 206.793 402.517 206.385 402.247 205.906C402.019 205.456 401.906 204.964 401.92 204.471C401.92 203.866 402.09 203.29 402.403 202.769C402.758 202.206 403.284 201.756 403.895 201.475C404.562 201.137 405.4 200.983 406.409 200.983C406.992 200.983 407.588 201.025 408.171 201.109C408.597 201.165 409.009 201.278 409.392 201.433C409.449 201.447 409.506 201.503 409.534 201.559C409.549 201.616 409.563 201.672 409.563 201.728V204.021C409.563 204.077 409.534 204.134 409.492 204.162C409.364 204.19 409.293 204.19 409.236 204.162Z" fill="#31A8FF" />
		</g>
	</g>
	<g id="vscode">
		<circle cx="77.3621" cy="142.573" r="77.3491" fill="#4C566A" />
		<g clip-path="url(#clip5_19_3)">
			<path d="M116.178 109.527L98.5733 100.984C96.5357 99.9956 94.1004 100.413 92.5011 102.025L34.871 154.984C33.3209 156.408 33.3227 158.868 34.8748 160.29L39.5822 164.603C40.8512 165.766 42.7623 165.851 44.1286 164.807L113.529 111.744C115.857 109.963 119.201 111.637 119.201 114.583V114.377C119.201 112.309 118.026 110.424 116.178 109.527Z" fill="#0065A9" />
			<path d="M116.178 177.046L98.5733 185.589C96.5357 186.577 94.1004 186.16 92.5011 184.549L34.871 131.59C33.3209 130.165 33.3227 127.706 34.8748 126.283L39.5822 121.97C40.8512 120.808 42.7623 120.722 44.1286 121.767L113.529 174.83C115.857 176.61 119.201 174.936 119.201 171.99V172.197C119.201 174.264 118.026 176.149 116.178 177.046Z" fill="#007ACC" />
			<path d="M98.5181 185.596C96.4799 186.584 94.0445 186.166 92.4452 184.554C94.4157 186.54 97.7852 185.134 97.7852 182.325V104.259C97.7852 101.45 94.4157 100.044 92.4452 102.03C94.0445 100.418 96.4799 100 98.5181 100.988L116.119 109.519C117.969 110.416 119.145 112.301 119.145 114.37V172.215C119.145 174.283 117.969 176.168 116.119 177.065L98.5181 185.596Z" fill="#1F9CF0" />
		</g>
	</g>
	<defs>
		<clipPath id="clip0_19_3">
			<rect width="68.6186" height="68.6186" fill="white" transform="matrix(1 0 0 -1 102.345 361.043)" />
		</clipPath>
		<clipPath id="clip1_19_3">
			<rect width="78.2723" height="66.4128" fill="white" transform="translate(310.155 44.2858)" />
		</clipPath>
		<clipPath id="clip2_19_3">
			<rect width="30.9093" height="46.3639" fill="white" transform="matrix(-1 0 0 1 211.838 19.0424)" />
		</clipPath>
		<clipPath id="clip3_19_3">
			<rect width="52.3416" height="50.5367" fill="white" transform="translate(222.999 172.11)" />
		</clipPath>
		<clipPath id="clip4_19_3">
			<rect width="34.0941" height="32.9184" fill="white" transform="translate(381.961 189.124)" />
		</clipPath>
		<clipPath id="clip5_19_3">
			<rect width="85.7733" height="85.7733" fill="white" transform="translate(33.7096 100.452)" />
		</clipPath>
	</defs>
</svg>