<svg width="37" height="37" viewBox="0 0 37 37" fill="none" xmlns="http://www.w3.org/2000/svg">
<path fill-rule="evenodd" clip-rule="evenodd" d="M10.3333 2C8.1232 2 6.00358 2.87797 4.44078 4.44078C2.87797 6.00358 2 8.1232 2 10.3333V26.6667C2 28.8768 2.87797 30.9964 4.44078 32.5592C6.00358 34.122 8.1232 35 10.3333 35H26.6667C28.8768 35 30.9964 34.122 32.5592 32.5592C34.122 30.9964 35 28.8768 35 26.6667V10.3333C35 8.1232 34.122 6.00358 32.5592 4.44078C30.9964 2.87797 28.8768 2 26.6667 2H10.3333ZM3.02656 3.02656C4.96444 1.08869 7.59276 0 10.3333 0H26.6667C29.4072 0 32.0356 1.08869 33.9734 3.02656C35.9113 4.96444 37 7.59276 37 10.3333V26.6667C37 29.4072 35.9113 32.0356 33.9734 33.9734C32.0356 35.9113 29.4072 37 26.6667 37H10.3333C7.59276 37 4.96444 35.9113 3.02656 33.9734C1.08869 32.0356 0 29.4072 0 26.6667V10.3333C0 7.59276 1.08869 4.96444 3.02656 3.02656ZM28.9996 7.83333C28.9076 7.83333 28.833 7.90795 28.833 8C28.833 8.09205 28.9076 8.16667 28.9996 8.16667C29.0917 8.16667 29.1663 8.09205 29.1663 8C29.1663 7.90795 29.0917 7.83333 28.9996 7.83333ZM26.833 8C26.833 6.80338 27.803 5.83333 28.9996 5.83333C30.1962 5.83333 31.1663 6.80338 31.1663 8C31.1663 9.19662 30.1962 10.1667 28.9996 10.1667C27.803 10.1667 26.833 9.19662 26.833 8ZM18.4996 11.3334C14.5416 11.3334 11.333 14.5421 11.333 18.5001C11.333 22.4581 14.5416 25.6668 18.4996 25.6668C22.4577 25.6668 25.6663 22.4581 25.6663 18.5001C25.6663 14.5421 22.4577 11.3334 18.4996 11.3334ZM9.33295 18.5001C9.33295 13.4375 13.437 9.33343 18.4996 9.33343C23.5622 9.33343 27.6663 13.4375 27.6663 18.5001C27.6663 23.5627 23.5622 27.6668 18.4996 27.6668C13.437 27.6668 9.33295 23.5627 9.33295 18.5001Z" fill="#eee"/>
</svg>
