<svg width="39" height="35" viewBox="0 0 39 35" fill="none" xmlns="http://www.w3.org/2000/svg">
<path d="M37.9704 0.655006C37.1545 -0.0128501 36.0331 -0.184709 35.0504 0.207456L1.77586 13.4675C0.312147 14.0622 -0.385985 15.7155 0.216479 17.1602C0.528082 17.9074 1.14834 18.4873 1.92095 18.7539L9.09927 21.2172L12.9895 33.9133C12.9973 33.9392 13.0213 33.955 13.0314 33.9798C13.0717 34.0811 13.1305 34.1743 13.2048 34.2546C13.2324 34.2869 13.2626 34.3173 13.2948 34.3452C13.3917 34.4247 13.5042 34.4834 13.6253 34.5177C13.6438 34.523 13.6561 34.5392 13.6749 34.5435L13.6858 34.5431L13.6913 34.5453C13.7533 34.5589 13.8165 34.5655 13.8799 34.565C13.9627 34.5621 14.0449 34.548 14.1238 34.523C14.1391 34.5189 14.1545 34.52 14.1695 34.5151C14.3043 34.4682 14.426 34.3911 14.5252 34.2897C14.5367 34.2783 14.5543 34.2763 14.5654 34.2642L20.1623 28.1686L28.3272 34.4092C28.8233 34.7921 29.435 35.0001 30.0647 35C31.4267 34.9998 32.6024 34.058 32.883 32.7426L38.9425 3.37969C39.1524 2.36398 38.7787 1.31671 37.9704 0.655006ZM15.0208 23.6251L13.7074 29.9252L10.9683 20.9834L24.5532 14.0008L15.2729 23.1614C15.1445 23.2882 15.0569 23.4494 15.0208 23.6251ZM31.0641 32.3738C30.9929 32.7112 30.749 32.9879 30.4202 33.1042C30.099 33.2261 29.7363 33.1718 29.4663 32.961L20.6194 26.1994C20.2364 25.9067 19.6897 25.9542 19.3644 26.3086L15.4725 30.5472L16.7836 24.2642L30.1337 11.0847C30.4965 10.7272 30.4971 10.1472 30.1349 9.78917C29.8485 9.50576 29.4088 9.43885 29.0491 9.62391L9.80285 19.5169L2.52851 17.021C2.13201 16.8922 1.86234 16.5289 1.85747 16.117C1.83831 15.7021 2.08712 15.3207 2.47773 15.1664L35.7469 1.90815C36.0944 1.76258 36.4954 1.82356 36.7824 2.06568C37.0681 2.29326 37.1993 2.66037 37.1216 3.01449L31.0641 32.3738Z" fill="#eee"/>
</svg>
