<svg width="35" height="40" viewBox="0 0 35 40" fill="none" xmlns="http://www.w3.org/2000/svg">
<path d="M34.3043 8.50835C33.417 8.50117 31.1386 8.28577 29.2009 6.49076C26.9011 4.35828 26.7237 1.54371 26.7237 0.732364C26.7237 0.337462 26.4114 0.0215401 26.0281 0.0143601L18.7101 0C18.3198 0 18.0003 0.323102 18.0003 0.718004V26.9754C17.9932 29.7038 15.7929 31.9225 13.1028 31.9225C10.4056 31.9225 8.2052 29.6966 8.2052 26.9682C8.2052 24.2398 10.4056 22.014 13.1028 22.014C13.5783 22.014 14.0681 22.0858 14.5508 22.2294C14.7637 22.294 14.9979 22.2509 15.1754 22.1145C15.3528 21.9781 15.4593 21.7627 15.4593 21.5401V14.8052C15.4593 14.4462 15.2038 14.1447 14.856 14.0944C14.1888 13.9939 13.5286 13.9436 12.8827 13.9436C5.77771 13.9436 0 19.7882 0 26.9754C0 34.1555 5.77771 40 12.8827 40C19.9878 40 25.7655 34.1555 25.7655 26.9754V14.4103C27.6748 16.2556 30.2372 17.3183 32.9273 17.3183C33.4454 17.3183 33.9423 17.2824 34.4037 17.2034C34.7515 17.1459 34.9999 16.8444 34.9999 16.4926V9.22635C35.007 8.83145 34.6947 8.50835 34.3043 8.50835ZM33.5874 15.8535C33.3745 15.8679 33.1544 15.8751 32.9344 15.8751C30.0384 15.8751 27.3128 14.4534 25.6448 12.0625C25.4674 11.804 25.148 11.6963 24.8498 11.7896C24.5517 11.883 24.353 12.163 24.353 12.4717V26.9611C24.353 33.3513 19.207 38.5496 12.8898 38.5496C6.56558 38.5496 1.42668 33.3513 1.42668 26.9611C1.42668 20.5636 6.57268 15.3653 12.8898 15.3653C13.266 15.3653 13.6564 15.3868 14.0468 15.4227V20.6283C13.7345 20.578 13.4151 20.5565 13.1028 20.5565C9.61769 20.5565 6.78562 23.4213 6.78562 26.9467C6.78562 30.4721 9.61769 33.3369 13.1028 33.3369C16.5737 33.3369 19.4057 30.4793 19.4199 26.9539V1.43601H25.0486L25.3396 1.44319C25.4603 2.8433 25.9926 5.47119 28.2427 7.5534C30.1307 9.30533 32.2956 9.7864 33.5874 9.90846V15.8535Z" fill="#eee"/>
</svg>
