<svg width="114" height="69" viewBox="0 0 114 69" fill="none" xmlns="http://www.w3.org/2000/svg">
<path d="M15.4025 25.3488L13.0269 27.9363V35.5234H2.62793V4.82425H13.0269V15.9637L23.3361 4.82425H34.8557L22.3052 18.3319L35.4832 35.5234H23.2465L15.4025 25.3488ZM47.944 36.2251C45.3443 36.2251 42.8043 35.9473 40.3241 35.3918C37.8738 34.8071 35.8567 34.0323 34.273 33.0675L37.6795 25.5243C39.1736 26.3721 40.847 27.0592 42.6997 27.5855C44.5524 28.0825 46.3304 28.331 48.0336 28.331C49.4979 28.331 50.5437 28.1995 51.1713 27.9363C51.7988 27.644 52.1125 27.22 52.1125 26.6645C52.1125 26.0213 51.6942 25.5389 50.8575 25.2173C50.0507 24.8957 48.706 24.5448 46.8234 24.1647C44.403 23.6677 42.3859 23.1414 40.7723 22.5859C39.1587 22.0012 37.7542 21.0656 36.5589 19.7791C35.3637 18.4634 34.766 16.6946 34.766 14.4726C34.766 12.5429 35.3188 10.7887 36.4245 9.20985C37.5301 7.63103 39.1736 6.38845 41.355 5.48209C43.5663 4.57574 46.2407 4.12256 49.3783 4.12256C51.5298 4.12256 53.6365 4.35646 55.6984 4.82425C57.7901 5.26281 59.6279 5.92065 61.2116 6.79777L58.0292 14.2971C54.9513 12.7768 52.0378 12.0166 49.2887 12.0166C46.5694 12.0166 45.2098 12.6598 45.2098 13.9463C45.2098 14.5603 45.6132 15.0281 46.42 15.3497C47.2268 15.6421 48.5566 15.9637 50.4093 16.3145C52.7998 16.7531 54.8169 17.2647 56.4604 17.8495C58.1039 18.405 59.5233 19.3259 60.7186 20.6124C61.9437 21.8988 62.5563 23.6531 62.5563 25.8751C62.5563 27.8048 62.0035 29.559 60.8979 31.1378C59.7922 32.6874 58.1338 33.93 55.9225 34.8656C53.7411 35.7719 51.0816 36.2251 47.944 36.2251ZM91.7911 27.7171V35.5234H65.7041V4.82425H91.2084V12.6306H76.103V16.2268H89.3707V23.6823H76.103V27.7171H91.7911Z" fill="url(#paint0_linear_87_19)"/>
<path fill-rule="evenodd" clip-rule="evenodd" d="M28.3483 32.5355L99.9768 27.1338C104.913 26.7615 109.223 30.3751 109.604 35.205L110.907 51.749C111.288 56.5788 107.594 60.796 102.658 61.1683L31.0294 66.57C26.093 66.9422 21.7828 63.3286 21.4024 58.4988L20.0991 41.9548C19.7186 37.1249 23.4119 32.9078 28.3483 32.5355ZM50.8312 42.7226C49.5734 41.6922 47.9793 41.2524 46.0489 41.4039C45.055 41.4818 44.1514 41.7221 43.3379 42.1246C42.523 42.5085 41.835 43.033 41.2739 43.698L41.1384 42.043L35.9492 42.45L37.1946 57.6537L42.6419 57.2264L42.0398 49.8771C41.9418 48.6802 42.1454 47.7608 42.6506 47.119C43.175 46.4755 43.9055 46.1172 44.842 46.0437C46.543 45.9104 47.4786 46.8815 47.6487 48.9573L48.2898 56.7836L53.737 56.3563L53.0246 47.6605C52.8393 45.3977 52.1081 43.7518 50.8312 42.7226ZM76.1303 39.0447C78.0416 38.8949 79.6069 39.3367 80.8266 40.3703C82.0653 41.4024 82.7773 43.0498 82.9627 45.3126L83.6751 54.0085L78.2277 54.4357L77.5866 46.6094C77.4994 45.5434 77.2247 44.7745 76.7629 44.3026C76.3202 43.8291 75.7262 43.6217 74.9808 43.6801C74.1588 43.7446 73.5224 44.0767 73.0714 44.6767C72.6205 45.2768 72.4417 46.1472 72.5352 47.2879L73.1533 54.8336L67.7061 55.2607L67.065 47.4345C66.895 45.3588 66.0263 44.3823 64.459 44.5052C63.618 44.5712 62.9721 44.9042 62.521 45.5041C62.0701 46.1041 61.8912 46.9745 61.9848 48.1153L62.6029 55.661L57.1557 56.0882L55.9102 40.8845L61.0993 40.4775L61.2304 42.0765C61.7532 41.4144 62.3941 40.903 63.1533 40.5424C63.9301 40.1614 64.7866 39.9343 65.7231 39.8609C66.8126 39.7755 67.8035 39.8954 68.6957 40.2206C69.5879 40.5459 70.3347 41.0896 70.9356 41.8518C71.4846 41.0371 72.2102 40.3873 73.1131 39.9024C74.016 39.4175 75.0217 39.1317 76.1303 39.0447ZM95.4306 53.1148C96.0873 52.9128 96.6335 52.6535 97.0692 52.337L95.4161 48.7118C94.9643 49.0672 94.4231 49.2697 93.7923 49.3191C93.2954 49.3581 92.8914 49.2393 92.5802 48.9625C92.2689 48.6858 92.0904 48.267 92.0444 47.7059L91.6308 42.6568L95.1572 42.3802L94.8309 38.3969L91.3045 38.6735L90.9804 34.7183L85.5332 35.1454L86.6018 48.1892C86.7596 50.1154 87.4134 51.5227 88.5634 52.4112C89.7326 53.2981 91.33 53.6623 93.356 53.5034C94.1014 53.4449 94.7929 53.3154 95.4306 53.1148Z" fill="url(#paint1_linear_87_19)"/>
<defs>
<linearGradient id="paint0_linear_87_19" x1="80.3391" y1="37.5101" x2="58.2375" y2="-6.36319" gradientUnits="userSpaceOnUse">
<stop stop-color="#DDDDDD"/>
<stop offset="1" stop-color="#F9F9F9"/>
</linearGradient>
<linearGradient id="paint1_linear_87_19" x1="98.9618" y1="59.7465" x2="78.1052" y2="21.6997" gradientUnits="userSpaceOnUse">
<stop stop-color="#DDDDDD"/>
<stop offset="1" stop-color="#F9F9F9"/>
</linearGradient>
</defs>
</svg>
