<svg width="650" height="617" viewBox="0 0 650 617" fill="none" xmlns="http://www.w3.org/2000/svg">
<g clip-path="url(#clip0_239_135)">
<path fill-rule="evenodd" clip-rule="evenodd" d="M412.312 384.351L425.912 370.827C455.088 341.82 499.915 336.397 536.035 356.033L599.718 390.653C654.252 420.297 668.028 494.42 623.352 538.843L575.998 585.927C561.082 600.76 541.018 613.13 516.531 615.413C456.232 621.033 315.622 613.86 167.886 466.963C29.9559 329.817 3.48696 210.216 0.138292 151.289C-1.55537 121.492 12.5253 96.2818 30.436 78.4728L82.7559 26.4498C123.334 -13.8976 190.146 -6.7159 224.123 38.6704L266.155 94.8171C293.802 131.747 291.362 183.36 258.545 215.991C258.758 215.672 250.828 223.254 250.655 223.72C250.368 224.474 249.328 227.655 250.332 234.12C252.438 247.703 263.782 276.516 311.398 323.863C359.002 371.193 388.018 382.527 401.795 384.637C408.037 385.596 411.3 384.703 412.312 384.351ZM410.926 385.73C410.984 385.677 411.038 385.624 411.091 385.571L411.092 385.57C411.144 385.52 411.196 385.472 411.246 385.426C411.307 385.37 411.365 385.316 411.422 385.263C411.628 385.077 411.815 384.913 411.982 384.78C412.308 384.507 412.552 384.333 412.702 384.23C412.79 384.171 412.847 384.137 412.874 384.122C412.829 384.145 412.691 384.212 412.455 384.3C412.414 384.315 412.366 384.333 412.312 384.351L410.926 385.73ZM410.926 385.73L410.915 385.74L410.825 385.83L410.926 385.73ZM461.168 406.283L445.082 422.237C444.178 422.987 441.862 424.88 440.528 425.773C437.862 427.56 434.335 429.503 429.908 431.153C420.878 434.517 408.975 436.323 394.212 434.06C365.322 429.627 327.045 409.93 276.145 359.32C225.262 308.727 205.398 270.628 200.923 241.785C198.635 227.037 200.46 215.126 203.865 206.091C205.533 201.663 207.499 198.142 209.303 195.479C210.203 194.151 211.06 193.041 211.815 192.139C212.193 191.688 212.546 191.289 212.868 190.94L223.292 180.535C237.578 166.329 239.578 142.748 226.128 124.782L184.097 68.6351C167.209 46.0771 135.733 44.2834 118.011 61.9058L65.6906 113.929C54.6933 124.863 49.4019 136.915 50.0576 148.452C52.7186 195.272 74.0949 303.193 203.141 431.507C338.522 566.12 463.562 570.133 511.892 565.63C521.765 564.71 531.585 559.58 540.745 550.47L588.098 503.387C607.345 484.247 603.098 449.4 575.838 434.58L512.155 399.96C494.572 390.403 473.968 393.557 461.168 406.283Z" fill="#EEEEEE"/>
</g>
<defs>
<clipPath id="clip0_239_135">
<rect width="650" height="617" fill="white"/>
</clipPath>
</defs>
</svg>
